<?xml version="1.0" encoding="utf-8"?>
<!-- Generator: Adobe Illustrator 16.0.3, SVG Export Plug-In . SVG Version: 6.00 Build 0)  -->
<!DOCTYPE svg PUBLIC "-//W3C//DTD SVG 1.1//EN" "http://www.w3.org/Graphics/SVG/1.1/DTD/svg11.dtd">
<svg version="1.1" id="Layer_1_1_" xmlns="http://www.w3.org/2000/svg" xmlns:xlink="http://www.w3.org/1999/xlink" x="0px" y="0px"
	 width="19px" height="19px" viewBox="-0.5 -0.5 19 19" enable-background="new -0.5 -0.5 19 19" xml:space="preserve">
<path fill="#C93636" d="M8.958-0.4C3.734-0.4-0.5,3.834-0.5,9.058c0,5.223,4.234,9.458,9.458,9.458s9.458-4.234,9.458-9.458
	C18.416,3.834,14.182-0.4,8.958-0.4z M14.322,13.166l-1.257,1.257c-0.058,0.043-0.161,0.043-0.221-0.014l-3.887-3.888l-3.902,3.888
	c-0.044,0.057-0.147,0.057-0.207,0l-1.256-1.257c-0.06-0.06-0.06-0.147,0-0.207L7.48,9.058L3.608,5.171
	c-0.06-0.059-0.06-0.147,0-0.207l1.256-1.256c0.06-0.06,0.148-0.06,0.207,0l3.887,3.887l3.887-3.901c0.06-0.06,0.147-0.06,0.207,0
	l1.257,1.256c0.058,0.06,0.058,0.148,0,0.207l-3.887,3.901l3.9,3.901C14.382,13.019,14.382,13.107,14.322,13.166z"/>
</svg>
