<?xml version="1.0" encoding="utf-8"?>
<!-- Generator: Adobe Illustrator 16.0.3, SVG Export Plug-In . SVG Version: 6.00 Build 0)  -->
<!DOCTYPE svg PUBLIC "-//W3C//DTD SVG 1.1//EN" "http://www.w3.org/Graphics/SVG/1.1/DTD/svg11.dtd">
<svg version="1.1" id="Capa_1" xmlns="http://www.w3.org/2000/svg" xmlns:xlink="http://www.w3.org/1999/xlink" x="0px" y="0px"
	 width="12px" height="14px" viewBox="0 0 12 14" enable-background="new 0 0 12 14" xml:space="preserve">
<path d="M3.592,10.017V4.398c0-0.443,0.359-0.803,0.802-0.803h6.825c0.442,0,0.802,0.359,0.802,0.803v5.618
	c0,0.445-0.359,0.805-0.802,0.805H4.394C3.951,10.821,3.592,10.462,3.592,10.017z"/>
<polygon points="2.789,6.405 0.647,4.499 -0.021,4.8 -0.021,7.208 2.789,7.208 "/>
<circle cx="0.381" cy="4.8" r="0.401"/>
<polygon points="2.789,8.011 0.647,9.917 -0.021,9.616 -0.021,7.208 2.789,7.208 "/>
<circle cx="0.381" cy="9.616" r="0.401"/>
</svg>
