<?xml version="1.0" encoding="utf-8"?>
<!-- Generator: Adobe Illustrator 16.0.3, SVG Export Plug-In . SVG Version: 6.00 Build 0)  -->
<!DOCTYPE svg PUBLIC "-//W3C//DTD SVG 1.1//EN" "http://www.w3.org/Graphics/SVG/1.1/DTD/svg11.dtd">
<svg version="1.1" id="Capa_1" xmlns="http://www.w3.org/2000/svg" xmlns:xlink="http://www.w3.org/1999/xlink" x="0px" y="0px"
	 width="12px" height="14px" viewBox="300 389 12 14" enable-background="new 300 389 12 14" xml:space="preserve">
<g>
	<path d="M312.002,389v0.318h-0.24c-0.327,0-0.601,0.066-0.818,0.198c-0.218,0.132-0.376,0.33-0.472,0.594
		c-0.074,0.184-0.113,0.513-0.113,0.988v4.428c0,1.371-0.089,2.36-0.27,2.966c-0.181,0.606-0.621,1.165-1.319,1.676
		c-0.7,0.511-1.653,0.766-2.863,0.766c-1.009,0-1.788-0.135-2.339-0.403c-0.75-0.367-1.281-0.839-1.59-1.411
		c-0.31-0.574-0.464-1.346-0.464-2.313v-5.708c0-0.67-0.037-1.087-0.111-1.251c-0.075-0.164-0.204-0.294-0.388-0.391
		c-0.181-0.097-0.521-0.144-1.014-0.138V389h6.017v0.318h-0.301c-0.452,0-0.762,0.047-0.932,0.143
		c-0.169,0.094-0.29,0.225-0.363,0.39c-0.07,0.167-0.107,0.582-0.107,1.247v5.709c0,1.042,0.078,1.733,0.236,2.073
		c0.157,0.337,0.418,0.618,0.778,0.84c0.361,0.225,0.818,0.337,1.367,0.337c0.631,0,1.169-0.144,1.612-0.427
		c0.444-0.282,0.776-0.674,0.997-1.173c0.221-0.5,0.331-1.368,0.331-2.606v-4.754c0-0.521-0.055-0.894-0.165-1.117
		c-0.107-0.224-0.247-0.378-0.411-0.464c-0.259-0.131-0.621-0.198-1.092-0.198V389H312.002L312.002,389z M301.023,402.986h9.956
		v-0.867h-9.956V402.986z"/>
</g>
</svg>
