<?xml version="1.0" encoding="utf-8"?>
<!-- Generator: Adobe Illustrator 16.0.3, SVG Export Plug-In . SVG Version: 6.00 Build 0)  -->
<!DOCTYPE svg PUBLIC "-//W3C//DTD SVG 1.1//EN" "http://www.w3.org/Graphics/SVG/1.1/DTD/svg11.dtd">
<svg version="1.1" id="Capa_1" xmlns="http://www.w3.org/2000/svg" xmlns:xlink="http://www.w3.org/1999/xlink" x="0px" y="0px"
	 width="12px" height="14px" viewBox="0 0 12 14" enable-background="new 0 0 12 14" xml:space="preserve">
<g>
	<g>
		<path d="M11.732,0.995H0.267c-0.151,0-0.273,0.123-0.273,0.272v11.465c0,0.153,0.122,0.273,0.273,0.273h11.465
			c0.151,0,0.273-0.12,0.273-0.273V1.267C12.006,1.117,11.884,0.995,11.732,0.995z M3.816,12.46H0.54V9.184h3.276V12.46z
			 M3.816,8.639H0.54V5.362h3.276V8.639z M3.816,4.816H0.54V1.541h3.276V4.816z M7.638,12.46H4.362V9.184h3.275V12.46z M7.638,8.639
			H4.362V5.362h3.275V8.639z M7.638,4.816H4.362V1.541h3.275V4.816z M11.46,12.46H8.184V9.184h3.276V12.46z M11.46,8.639H8.184
			V5.362h3.276V8.639z M11.46,4.816H8.184V1.541h3.276V4.816z"/>
	</g>
</g>
</svg>
