<?xml version="1.0" encoding="utf-8"?>
<!-- Generator: Adobe Illustrator 16.0.3, SVG Export Plug-In . SVG Version: 6.00 Build 0)  -->
<!DOCTYPE svg PUBLIC "-//W3C//DTD SVG 1.1//EN" "http://www.w3.org/Graphics/SVG/1.1/DTD/svg11.dtd">
<svg version="1.1" id="Capa_1" xmlns="http://www.w3.org/2000/svg" xmlns:xlink="http://www.w3.org/1999/xlink" x="0px" y="0px"
	 width="12px" height="14px" viewBox="300 389 12 14" enable-background="new 300 389 12 14" xml:space="preserve">
<g>
	<g>
		<polygon points="304.77,390.535 302.476,396.086 309.402,396.086 311.696,390.535 		"/>
		<path d="M300.06,401.544c-0.03,0.074-0.022,0.158,0.022,0.225s0.119,0.106,0.199,0.106h6.927c0.098,0,0.184-0.059,0.223-0.147
			l4.588-11.102c0.03-0.074,0.021-0.158-0.022-0.224c-0.045-0.066-0.119-0.106-0.199-0.106h-6.927c-0.097,0-0.184,0.058-0.221,0.148
			L300.06,401.544z M307.049,401.397h-6.411l2.097-5.073h6.41L307.049,401.397z M309.342,395.846h-6.41l2.097-5.073h6.411
			L309.342,395.846z"/>
	</g>
</g>
</svg>
