<?xml version="1.0" encoding="utf-8"?>
<!-- Generator: Adobe Illustrator 16.0.3, SVG Export Plug-In . SVG Version: 6.00 Build 0)  -->
<!DOCTYPE svg PUBLIC "-//W3C//DTD SVG 1.1//EN" "http://www.w3.org/Graphics/SVG/1.1/DTD/svg11.dtd">
<svg version="1.1" id="Capa_1" xmlns="http://www.w3.org/2000/svg" xmlns:xlink="http://www.w3.org/1999/xlink" x="0px" y="0px"
	 width="12px" height="14px" viewBox="300 389 12 14" enable-background="new 300 389 12 14" xml:space="preserve">
<path d="M305.072,396.982H312v-1.979h-6.928V396.982z M305.072,400.941H312v-1.98h-6.928V400.941z M305.072,391.044v1.979H312
	v-1.979H305.072z M301.345,395.003h1.207v-3.959h-0.557l-1.315,0.356v0.773l0.665-0.031V395.003z M303.046,398.189
	c0-0.557-0.186-1.207-1.485-1.207c-0.51,0-0.99,0.094-1.284,0.248l0.016,1.021c0.325-0.156,0.649-0.232,1.036-0.232
	s0.495,0.17,0.495,0.434c0,0.4-0.464,0.895-1.701,1.73v0.773h2.969v-1.035l-1.407,0.029c0.758-0.463,1.345-1.02,1.345-1.746
	L303.046,398.189z"/>
</svg>
