<?xml version="1.0" encoding="utf-8"?>
<!-- Generator: Adobe Illustrator 16.0.3, SVG Export Plug-In . SVG Version: 6.00 Build 0)  -->
<!DOCTYPE svg PUBLIC "-//W3C//DTD SVG 1.1//EN" "http://www.w3.org/Graphics/SVG/1.1/DTD/svg11.dtd">
<svg version="1.1" id="Capa_1" xmlns="http://www.w3.org/2000/svg" xmlns:xlink="http://www.w3.org/1999/xlink" x="0px" y="0px"
	 width="12px" height="14px" viewBox="0 0 12 14" enable-background="new 0 0 12 14" xml:space="preserve">
<path fill="none" d="M-1.219,0.261h14.422v14.177H-1.219V0.261z"/>
<g>
	<g>
		<g>
			<path d="M10.876,1.156H1.125C0.503,1.156,0,1.645,0,2.248v9.459c0,0.603,0.503,1.092,1.125,1.092h9.751
				c0.621,0,1.124-0.489,1.124-1.092V2.248C12,1.645,11.497,1.156,10.876,1.156z M11.25,11.707c0,0.202-0.167,0.365-0.374,0.365
				H1.125c-0.207,0-0.375-0.163-0.375-0.365V2.248c0-0.201,0.168-0.364,0.375-0.364h9.751c0.207,0,0.374,0.163,0.374,0.364V11.707z"
				/>
			<path d="M8.224,8.764c-0.159-0.153-0.414-0.153-0.572,0L6.72,9.68L4.982,7.971c-0.158-0.153-0.413-0.153-0.571,0L1.575,10.76
				c-0.156,0.156-0.154,0.408,0.006,0.563c0.073,0.072,0.173,0.113,0.277,0.113h8.102c0.224,0.002,0.406-0.176,0.407-0.396
				c0.001-0.107-0.043-0.209-0.12-0.284L8.224,8.764z"/>
			<ellipse cx="7.126" cy="6.26" rx="1.215" ry="1.194"/>
		</g>
	</g>
</g>
</svg>
