<?xml version="1.0" encoding="utf-8"?>
<!-- Generator: Adobe Illustrator 16.0.0, SVG Export Plug-In . SVG Version: 6.00 Build 0)  -->
<!DOCTYPE svg PUBLIC "-//W3C//DTD SVG 1.1//EN" "http://www.w3.org/Graphics/SVG/1.1/DTD/svg11.dtd">
<svg version="1.1" id="Layer_1" xmlns="http://www.w3.org/2000/svg" xmlns:xlink="http://www.w3.org/1999/xlink" x="0px" y="0px"
	 width="50px" height="50px" viewBox="0 0 50 50" enable-background="new 0 0 50 50" xml:space="preserve">
<path fill="#FFFFFF" stroke="#336699" stroke-width="2" stroke-miterlimit="10" d="M35,42c0,1.104-0.896,2-2,2H5
	c-1.104,0-2-0.896-2-2V6c0-1.104,0.896-2,2-2h28c1.104,0,2,0.896,2,2V42z"/>
<rect x="8" y="8" fill="#336699" width="22" height="2"/>
<rect x="8" y="14" fill="#336699" width="22" height="2"/>
<rect x="8" y="20" fill="#336699" width="22" height="2"/>
<rect x="8" y="26" fill="#336699" width="22" height="2"/>
<circle fill="#FFFFFF" stroke="#336699" stroke-width="2" stroke-miterlimit="10" cx="37.334" cy="37.25" r="10.5"/>
<g>
	<path fill="#336699" d="M38.458,31.155v4.994h4.788v2.154h-4.788v5.042H36.21v-5.042h-4.788v-2.154h4.788v-4.994H38.458z"/>
</g>
</svg>
