<?xml version="1.0" encoding="utf-8"?>
<!-- Generator: Adobe Illustrator 27.8.0, SVG Export Plug-In . SVG Version: 6.00 Build 0)  -->
<svg version="1.1" id="Layer_1" xmlns="http://www.w3.org/2000/svg" xmlns:xlink="http://www.w3.org/1999/xlink" x="0px" y="0px"
	 viewBox="0 0 20 20" style="enable-background:new 0 0 20 20;" xml:space="preserve">
<style type="text/css">
	.st0{fill:#203240;}
</style>
<path id="XMLID_83_" class="st0" d="M16.6,5.3H3.4C3,5.3,2.7,4.9,2.7,4.5S3,3.8,3.4,3.8h13.2c0.4,0,0.7,0.3,0.7,0.7
	C17.3,4.9,17,5.3,16.6,5.3z M17.3,8.5c0-0.4-0.3-0.7-0.7-0.7H9c-0.4,0-0.7,0.3-0.7,0.7S8.6,9.2,9,9.2h7.6C17,9.2,17.3,8.9,17.3,8.5z
	 M17.3,12.4c0-0.4-0.3-0.7-0.7-0.7H6.8C6.4,11.6,6,12,6,12.4s0.3,0.7,0.7,0.7h9.8C17,13.1,17.3,12.8,17.3,12.4z M17.3,16.3
	c0-0.4-0.3-0.7-0.7-0.7H4.1c-0.4,0-0.7,0.3-0.7,0.7S3.7,17,4.1,17h12.5C17,17,17.3,16.7,17.3,16.3z"/>
</svg>
