<?xml version="1.0" encoding="utf-8"?>
<!-- Generator: Adobe Illustrator 27.8.0, SVG Export Plug-In . SVG Version: 6.00 Build 0)  -->
<svg version="1.1" id="Layer_1" xmlns="http://www.w3.org/2000/svg" xmlns:xlink="http://www.w3.org/1999/xlink" x="0px" y="0px"
	 viewBox="0 0 20 20" style="enable-background:new 0 0 20 20;" xml:space="preserve">
<style type="text/css">
	.st0{fill:#203240;}
	.st1{fill:none;stroke:#203240;stroke-width:0.6;stroke-miterlimit:10;}
</style>
<g>
	<path class="st0" d="M17.6,7H2.4C1.5,7,1.5,7.8,1.5,7.8v4.4c0,0.9,0.8,0.9,0.8,0.9h1.5v-0.8H2.3V7.7h15.4v4.6h-1.5v0.8h1.5
		c0,0,0.8,0,0.8-0.9V7.8C18.5,7.8,18.5,7,17.6,7z"/>
	<path class="st0" d="M15.8,9.3H4.2c0,0-0.4,0-0.4,0.4C3.8,10,4.2,10,4.2,10h11.5c0,0,0.4,0,0.4-0.4C16.2,9.3,15.8,9.3,15.8,9.3z"/>
	<rect x="4.6" y="12.3" class="st1" width="10.8" height="6.2"/>
	<rect x="6.2" y="13.9" class="st0" width="7.7" height="0.8"/>
	<rect x="6.2" y="15.8" class="st0" width="7.7" height="0.8"/>
	<polygon class="st0" points="5.4,2.3 14.6,2.3 14.6,6.2 15.4,6.2 15.4,1.6 4.6,1.6 4.6,6.2 5.4,6.2 	"/>
</g>
</svg>
