<?xml version="1.0" encoding="utf-8"?>
<!-- Generator: Adobe Illustrator 27.8.0, SVG Export Plug-In . SVG Version: 6.00 Build 0)  -->
<svg version="1.1" id="Layer_1" xmlns="http://www.w3.org/2000/svg" xmlns:xlink="http://www.w3.org/1999/xlink" x="0px" y="0px"
	 viewBox="0 0 20 20" style="enable-background:new 0 0 20 20;" xml:space="preserve">
<style type="text/css">
	.st0{fill:#203240;}
</style>
<g id="Layer_x0020_1">
	<path class="st0" d="M8.9,13.8c0-0.2,0-0.4,0-0.5c0-0.7,0.1-1.3,0.3-1.8c0.1-0.4,0.4-0.8,0.7-1.2c0.2-0.3,0.7-0.7,1.3-1.2
		s1-1,1.2-1.3s0.3-0.7,0.3-1.1c0-0.7-0.3-1.3-0.8-1.8s-1.2-0.8-2-0.8S8.5,4.3,8,4.8C7.4,5.3,7.1,6,6.9,7L5.1,6.8
		c0.2-1.4,0.7-2.4,1.5-3.1s1.8-1.1,3.2-1.1s2.6,0.4,3.4,1.2c0.8,0.8,1.3,1.7,1.3,2.8c0,0.6-0.1,1.2-0.4,1.8
		c-0.3,0.5-0.9,1.2-1.7,1.9c-0.6,0.5-1,0.9-1.1,1.1c-0.2,0.2-0.3,0.5-0.4,0.8c-0.1,0.3-0.1,0.8-0.1,1.5L8.9,13.8L8.9,13.8z
		 M8.8,17.4v-2h2v2H8.8z"/>
</g>
</svg>
