<?xml version="1.0" encoding="utf-8"?>
<!-- Generator: Adobe Illustrator 27.8.0, SVG Export Plug-In . SVG Version: 6.00 Build 0)  -->
<svg version="1.1" id="Layer_1" xmlns="http://www.w3.org/2000/svg" xmlns:xlink="http://www.w3.org/1999/xlink" x="0px" y="0px"
	 viewBox="0 0 20 20" style="enable-background:new 0 0 20 20;" xml:space="preserve">
<style type="text/css">
	.st0{fill:#203240;}
</style>
<path class="st0" d="M18.4,9.1c-0.2-0.3-0.7-0.3-1-0.1L16,10.1c0-3.1-2.1-5.9-5.2-6.8c-3.7-1-7.6,1.2-8.6,5c-1,3.7,1.2,7.6,5,8.6
	C7.6,17,8,16.8,8.1,16.4C8.2,16,8,15.7,7.6,15.6c-3-0.8-4.8-3.9-4-6.9s3.9-4.8,6.9-4c2.5,0.7,4.2,2.9,4.2,5.4l-1.2-1.5
	c-0.2-0.3-0.7-0.3-1-0.1s-0.3,0.7-0.1,1l0,0l2.2,2.6l0,0c0,0,0.1,0,0.1,0.1c0,0,0,0,0.1,0.1c0.1,0,0.1,0.1,0.2,0.1l0,0l0,0
	c0.1,0,0.1,0,0.2,0h0.1h0.1c0,0,0.1,0,0.1-0.1c0,0,0,0,0.1,0l0,0l2.7-2.2C18.6,9.8,18.6,9.4,18.4,9.1z"/>
</svg>
