<?xml version="1.0" encoding="utf-8"?>
<!-- Generator: Adobe Illustrator 27.8.0, SVG Export Plug-In . SVG Version: 6.00 Build 0)  -->
<svg version="1.1" id="Layer_1" xmlns="http://www.w3.org/2000/svg" xmlns:xlink="http://www.w3.org/1999/xlink" x="0px" y="0px"
	 viewBox="0 0 20 20" style="enable-background:new 0 0 20 20;" xml:space="preserve">
<style type="text/css">
	.st0{fill:#203240;}
</style>
<g id="Layer_21">
	<g>
		<path class="st0" d="M4.1,17.2v-0.1c0,0,0,0,0-0.1v-0.9c0-0.1-0.1-0.2-0.2-0.2c-0.1,0-0.2,0.1-0.2,0.2V17v0.1v0.1l1,1.4l0,0
			l0.5,0.2L5,18.5L4.1,17.2z"/>
		<path class="st0" d="M5.9,18.6l-1-1.4v-0.1c0,0,0,0,0-0.1v-0.9c0-0.1-0.1-0.2-0.2-0.2S4.5,16,4.5,16.1V17v0.1v0.1l1,1.4l0,0
			L6,18.8L5.9,18.6L5.9,18.6L5.9,18.6z"/>
		<path class="st0" d="M7.5,18.6l-1-1.4v-0.1c0,0,0,0,0-0.1v-0.9c0-0.1-0.1-0.2-0.2-0.2S6.1,16,6.1,16.1V17v0.1v0.1l1,1.4l0,0
			l0.5,0.2L7.5,18.6L7.5,18.6z"/>
		<path class="st0" d="M8.3,18.6l-1-1.4v-0.1c0,0,0,0,0-0.1v-0.9c0-0.1-0.1-0.2-0.2-0.2S6.9,16,6.9,16.1V17v0.1v0.1l1,1.4l0,0
			l0.5,0.2L8.3,18.6L8.3,18.6L8.3,18.6z"/>
		<path class="st0" d="M9.9,18.6l-1-1.4v-0.1c0,0,0,0,0-0.1v-0.9c0-0.1-0.1-0.2-0.2-0.2c-0.1,0-0.2,0.1-0.2,0.2V17v0.1v0.1l1,1.4
			l0,0l0.5,0.2L9.9,18.6L9.9,18.6z"/>
		<path class="st0" d="M11.5,18.6l-1-1.4v-0.1c0,0,0,0,0-0.1v-0.9c0-0.1-0.1-0.2-0.2-0.2s-0.2,0.1-0.2,0.2V17v0.1v0.1l1,1.4l0,0
			l0.5,0.2L11.5,18.6L11.5,18.6L11.5,18.6z"/>
		<path class="st0" d="M12.3,18.6l-1-1.4v-0.1c0,0,0,0,0-0.1v-0.9c0-0.1-0.1-0.2-0.2-0.2c-0.1,0-0.2,0.1-0.2,0.2V17v0.1v0.1l1,1.4
			l0,0l0.5,0.2L12.3,18.6L12.3,18.6z"/>
		<path class="st0" d="M13.9,18.6l-1-1.4v-0.1c0,0,0,0,0-0.1v-0.9c0-0.1-0.1-0.2-0.2-0.2c-0.1,0-0.2,0.1-0.2,0.2V17v0.1v0.1l1,1.4
			l0,0l0.5,0.2L13.9,18.6L13.9,18.6L13.9,18.6z"/>
		<path class="st0" d="M14.7,18.6l-1-1.4v-0.1c0,0,0,0,0-0.1v-0.9c0-0.1-0.1-0.2-0.2-0.2c-0.1,0-0.2,0.1-0.2,0.2V17v0.1v0.1l1,1.4
			l0,0l0.5,0.2L14.7,18.6L14.7,18.6z"/>
		<path class="st0" d="M9.1,7.4c0.3,0,0.6-0.2,0.6-0.5V1.7c0-0.2-0.3-0.5-0.6-0.5S8.5,1.4,8.5,1.7V7C8.5,7.2,8.7,7.4,9.1,7.4z"/>
		<path class="st0" d="M14.3,13.9L9.7,7.2v0.1c0,0.3-0.3,0.6-0.6,0.6S8.5,7.6,8.5,7.3V7.2l-4.6,6.7l-0.2,1.8h10.8L14.3,13.9z"/>
		<path class="st0" d="M6.7,18.6L6.7,18.6l-1-1.4v-0.1c0,0,0,0,0-0.1v-0.9c0-0.1-0.1-0.2-0.2-0.2S5.3,16,5.3,16.1V17v0.1v0.1l1,1.4
			l0,0l0,0l0,0l0,0l0.5,0.2L6.7,18.6z"/>
		<path class="st0" d="M9.1,18.6L9.1,18.6l-1-1.4v-0.1c0,0,0,0,0-0.1v-0.9c0-0.1-0.1-0.2-0.2-0.2c-0.1,0-0.2,0.1-0.2,0.2V17v0.1v0.1
			l1,1.4l0,0l0,0l0,0l0,0l0.5,0.2L9.1,18.6z"/>
		<path class="st0" d="M10.6,18.4l-0.9-1.3V17c0,0,0,0,0-0.1V16c0-0.1-0.1-0.2-0.2-0.2S9.3,15.9,9.3,16v1v0.1v0.1l1,1.4l0,0l0.5,0.2
			L10.6,18.4L10.6,18.4z"/>
		<path class="st0" d="M13,18.4l-0.9-1.3V17c0,0,0,0,0-0.1V16c0-0.1-0.1-0.2-0.2-0.2c-0.1,0-0.2,0.1-0.2,0.2v1v0.1v0.1l1,1.4l0,0
			l0.5,0.2L13,18.4z"/>
		<path class="st0" d="M15.5,18.5l-1-1.4V17c0,0,0,0,0-0.1V16c0-0.1-0.1-0.2-0.2-0.2c-0.1,0-0.2,0.1-0.2,0.2v1v0.1v0.1l1,1.4l0,0
			l0.5,0.2L15.5,18.5z"/>
	</g>
</g>
</svg>
