<?xml version="1.0" encoding="utf-8"?>
<!-- Generator: Adobe Illustrator 27.8.0, SVG Export Plug-In . SVG Version: 6.00 Build 0)  -->
<svg version="1.1" id="Layer_1" xmlns="http://www.w3.org/2000/svg" xmlns:xlink="http://www.w3.org/1999/xlink" x="0px" y="0px"
	 viewBox="0 0 20 20" style="enable-background:new 0 0 20 20;" xml:space="preserve">
<style type="text/css">
	.st0{fill:#203240;}
</style>
<g id="Group" transform="translate(-240.000000, -144.000000)">
	<path id="Oval_188" class="st0" d="M249.8,159.5c2.8,0,5.2-2.3,5.2-5.1c0-1.6-1-3.4-2.2-4.3v-2.2c2.4,1.1,4,3.5,4,6.3
		c0,3.9-3.1,7-7,7s-7-3.1-7-7c0-2.8,1.6-5.2,4-6.3v2.2c-1.2,0.9-2.1,2.5-2.1,4.2C244.7,157,247.1,159.5,249.8,159.5z M249.8,154.2
		c-0.6,0-1-0.4-1-1v-6c0-0.5,0.4-1,1-1s1,0.4,1,1v6C250.8,153.8,250.4,154.2,249.8,154.2z"/>
</g>
</svg>
