<svg xmlns="http://www.w3.org/2000/svg" width="16.38" height="20.691" viewBox="0 0 16.38 20.691">
  <g id="password" transform="translate(-14.3 -7.6)">
    <g id="Group_346" data-name="Group 346" transform="translate(14.3 14.689)">
      <path id="Path_348" data-name="Path 348" d="M28.732,43.4H16.28a1.99,1.99,0,0,1-1.98-1.98V31.78a1.99,1.99,0,0,1,1.98-1.98H28.7a1.99,1.99,0,0,1,1.98,1.98v9.643A1.962,1.962,0,0,1,28.732,43.4ZM16.28,30.758a1.029,1.029,0,0,0-1.022,1.022v9.643a1.029,1.029,0,0,0,1.022,1.022H28.7a1.029,1.029,0,0,0,1.022-1.022V31.78A1.029,1.029,0,0,0,28.7,30.758Z" transform="translate(-14.3 -29.8)" fill="#fff"/>
    </g>
    <g id="Group_347" data-name="Group 347" transform="translate(16.791 7.6)">
      <path id="Path_349" data-name="Path 349" d="M23.058,14.88V13.316a4.758,4.758,0,1,1,9.515,0V14.88h.958V13.316a5.716,5.716,0,1,0-11.431,0V14.88Z" transform="translate(-22.1 -7.6)" fill="#fff"/>
    </g>
    <rect id="Rectangle_118" data-name="Rectangle 118" width="1.692" height="3.512" transform="translate(21.644 22.352)" fill="#fff"/>
  </g>
</svg>
