<?xml version="1.0" encoding="utf-8"?>
<!-- Generator: Adobe Illustrator 27.8.0, SVG Export Plug-In . SVG Version: 6.00 Build 0)  -->
<svg version="1.1" id="Layer_1" xmlns="http://www.w3.org/2000/svg" xmlns:xlink="http://www.w3.org/1999/xlink" x="0px" y="0px"
	 viewBox="0 0 20 20" style="enable-background:new 0 0 20 20;" xml:space="preserve">
<style type="text/css">
	.st0{fill:#203240;}
</style>
<path class="st0" d="M20,5.4c0-0.2,0-0.4,0-0.6L18,0.7C17.9,0.3,17.5,0,17.1,0H2.9C2.4,0,2.1,0.3,1.9,0.6l-1.8,4L0.1,4.8
	c-0.1,1,0.1,2.6,1.4,3.6v9.8c0,1,0.8,1.7,1.7,1.7c0,0,0,0,0,0h13.5c0.5,0,0.9-0.2,1.2-0.5s0.5-0.8,0.5-1.2V8.4
	C19.4,7.7,20,6.6,20,5.4L20,5.4z M16.2,8c-0.5,0-1.1-0.3-1.4-0.7L14.4,7L14,7.3C13.4,7.7,12.7,8,12,8c-0.6-0.1-1.2-0.3-1.6-0.8
	L10,6.7L9.6,7.2C9.5,7.3,9.5,7.3,9.4,7.4C8.9,7.8,8.3,8,7.7,8C7.1,8,6.5,7.7,6.1,7.2L5.6,6.8L5.2,7.2C4.7,7.7,4,7.9,3.3,7.8
	c-1.8-0.3-2-1.6-2.1-2.4h17.5C18.7,6.9,17.6,8,16.2,8L16.2,8z M10.6,4.3V1.2h3.2v3.1C13.8,4.3,10.6,4.3,10.6,4.3z M9.4,4.3H6.3V1.2
	h3.2C9.4,1.2,9.4,4.3,9.4,4.3z M18.4,4.3H15V1.2h2L18.4,4.3L18.4,4.3z M3,1.2h2.1v3.1H1.6C1.6,4.3,3,1.2,3,1.2z M11.7,18.8H8.3v-5.6
	h3.4V18.8z M17.3,18.2c0,0.3-0.3,0.5-0.6,0.5h-3.9V12H7.1v6.8H3.2c-0.3,0-0.6-0.2-0.6-0.5V9C2.8,9,3,9,3.1,9.1C4,9.2,4.9,9,5.6,8.5
	c0.6,0.5,1.3,0.7,2.1,0.8c0.1,0,0.1,0,0.1,0c0.8,0,1.6-0.3,2.2-0.8c0.6,0.4,1.2,0.7,2,0.8c0.8-0.1,1.6-0.3,2.2-0.7
	c0.5,0.4,1.2,0.7,1.9,0.7h0c0.4,0,0.8-0.1,1.1-0.2V18.2z"/>
</svg>
