<svg xmlns="http://www.w3.org/2000/svg" width="16.788" height="17.157" viewBox="0 0 16.788 17.157">
  <g id="user" transform="translate(-8.2 -7.5)">
    <g id="Group_348" data-name="Group 348" transform="translate(12.212 7.5)">
      <path id="Path_350" data-name="Path 350" d="M27.782,16.263a4.382,4.382,0,1,1,4.382-4.382A4.388,4.388,0,0,1,27.782,16.263Zm0-7.971a3.59,3.59,0,1,0,3.59,3.59A3.594,3.594,0,0,0,27.782,8.292Z" transform="translate(-23.4 -7.5)" fill="#fff"/>
    </g>
    <path id="Path_351" data-name="Path 351" d="M16.594,41.492a7.64,7.64,0,0,1,7.6,7.232.384.384,0,0,0,.4.37h0a.4.4,0,0,0,.4-.422,8.4,8.4,0,0,0-16.788,0,.4.4,0,0,0,.4.422h0a.384.384,0,0,0,.4-.37A7.621,7.621,0,0,1,16.594,41.492Z" transform="translate(0 -24.437)" fill="#fff"/>
  </g>
</svg>
