<?xml version="1.0" encoding="utf-8"?>
<!-- Generator: Adobe Illustrator 16.0.3, SVG Export Plug-In . SVG Version: 6.00 Build 0)  -->
<!DOCTYPE svg PUBLIC "-//W3C//DTD SVG 1.1//EN" "http://www.w3.org/Graphics/SVG/1.1/DTD/svg11.dtd">
<svg version="1.1" xmlns="http://www.w3.org/2000/svg" xmlns:xlink="http://www.w3.org/1999/xlink" x="0px" y="0px" width="15px"
	 height="15px" viewBox="0 0 15 15" enable-background="new 0 0 15 15" xml:space="preserve">
<g id="Layer_1">
	<g id="Layer_1_1_">
	</g>
</g>
<g id="Layer_2">
</g>
<g id="Layer_3">
	<g id="Excel">
		<path fill="#1D6F43" d="M13.657,2.785H8.56V1.443c0.004-0.147-0.115-0.27-0.263-0.272c-0.017,0-0.036,0.001-0.053,0.005
			L1.271,2.517C1.141,2.541,1.048,2.654,1.05,2.785v9.657c0,0.128,0.093,0.241,0.22,0.263l6.974,1.342h0.048
			c0.148,0,0.268-0.12,0.268-0.27v-1.335h5.098c0.148,0,0.268-0.12,0.268-0.268V3.053C13.925,2.905,13.806,2.785,13.657,2.785z
			 M5.852,9.909c0.058,0.137-0.007,0.293-0.145,0.351c-0.123,0.05-0.263,0.006-0.332-0.108L4.537,8.483l-0.832,1.661
			c-0.075,0.127-0.241,0.167-0.369,0.092c-0.114-0.068-0.16-0.21-0.109-0.332l1.009-2.023L3.223,5.853
			C3.166,5.717,3.231,5.56,3.367,5.502c0.124-0.051,0.264-0.004,0.332,0.109l0.838,1.669l0.832-1.663
			C5.445,5.49,5.61,5.45,5.738,5.526c0.113,0.068,0.16,0.21,0.108,0.333L4.837,7.881L5.852,9.909z M13.388,11.905H8.56v-0.537h1.343
			c0.148,0,0.268-0.12,0.268-0.269v-0.536c0-0.149-0.119-0.268-0.268-0.268H8.56V9.76h1.343c0.148,0,0.268-0.12,0.268-0.27V8.954
			c0-0.149-0.119-0.27-0.268-0.27H8.56V8.149h1.343c0.148,0,0.268-0.12,0.268-0.269V7.345c0-0.149-0.119-0.268-0.268-0.268H8.56
			V6.54h1.343c0.148,0,0.268-0.12,0.268-0.268V5.735c0-0.147-0.119-0.268-0.268-0.268H8.56V4.931h1.343
			c0.148,0,0.268-0.12,0.268-0.269V4.126c0-0.148-0.119-0.268-0.268-0.268H8.56V3.321h4.828V11.905z"/>
		<path fill="#1D6F43" d="M10.974,3.858h1.61c0.148,0,0.27,0.12,0.27,0.268v0.536c0,0.148-0.121,0.269-0.27,0.269h-1.61
			c-0.146,0-0.267-0.12-0.267-0.269V4.126C10.707,3.978,10.828,3.858,10.974,3.858z"/>
		<path fill="#1D6F43" d="M10.974,5.467h1.61c0.148,0,0.27,0.121,0.27,0.268v0.538c0,0.147-0.121,0.268-0.27,0.268h-1.61
			c-0.146,0-0.267-0.12-0.267-0.268V5.735C10.707,5.587,10.828,5.467,10.974,5.467z"/>
		<path fill="#1D6F43" d="M10.974,7.077h1.61c0.148,0,0.27,0.119,0.27,0.268v0.536c0,0.148-0.121,0.269-0.27,0.269h-1.61
			c-0.146,0-0.267-0.12-0.267-0.269V7.345C10.707,7.196,10.828,7.077,10.974,7.077z"/>
		<path fill="#1D6F43" d="M10.974,8.685h1.61c0.148,0,0.27,0.12,0.27,0.27V9.49c0,0.149-0.121,0.27-0.27,0.27h-1.61
			c-0.146,0-0.267-0.12-0.267-0.27V8.954C10.707,8.805,10.828,8.685,10.974,8.685z"/>
		<path fill="#1D6F43" d="M10.974,10.296h1.61c0.148,0,0.27,0.118,0.27,0.268V11.1c0,0.148-0.121,0.269-0.27,0.269h-1.61
			c-0.146,0-0.267-0.12-0.267-0.269v-0.536C10.707,10.414,10.828,10.296,10.974,10.296z"/>
	</g>
</g>
</svg>
