<svg xmlns="http://www.w3.org/2000/svg" viewBox="-20941.02 -16388.643 28.369 25.585">
  <defs>
    <style>
      .cls-1 {
        fill: #fff;
        stroke: #fff;
        stroke-width: 0.5px;
      }
    </style>
  </defs>
  <path id="my_task_sidebar" class="cls-1" d="M27.976,5.137H2.893a1.393,1.393,0,1,1,0-2.787H27.976a1.393,1.393,0,0,1,0,2.787ZM29.37,11.19A1.394,1.394,0,0,0,27.976,9.8H13.556a1.393,1.393,0,1,0,0,2.787h14.42A1.393,1.393,0,0,0,29.37,11.19Zm0,7.425a1.4,1.4,0,0,0-1.393-1.4H9.3a1.394,1.394,0,0,0,0,2.789H27.976A1.394,1.394,0,0,0,29.37,18.615Zm-.1,7.425a1.393,1.393,0,0,0-1.393-1.393H4.146a1.394,1.394,0,0,0,0,2.789H27.883A1.393,1.393,0,0,0,29.275,26.039Z" transform="translate(-20942.27 -16390.743)"/>
</svg>
