<?xml version="1.0" encoding="utf-8"?>
<!-- Generator: Adobe Illustrator 16.0.0, SVG Export Plug-In . SVG Version: 6.00 Build 0)  -->
<!DOCTYPE svg PUBLIC "-//W3C//DTD SVG 1.1//EN" "http://www.w3.org/Graphics/SVG/1.1/DTD/svg11.dtd">
<svg version="1.1" id="Layer_1" xmlns="http://www.w3.org/2000/svg" xmlns:xlink="http://www.w3.org/1999/xlink" x="0px" y="0px"
	 width="15px" height="15px" viewBox="0 0 15 15" enable-background="new 0 0 15 15" xml:space="preserve">
<g id="Layer_1_1_">
</g>
<g id="Layer_2">
	<g id="layer1" transform="translate(0,-284.29998)">
		<path id="path4487" fill="#FFFFFF" d="M2.445,286.012h11.252v1.258H2.445V286.012z"/>
		<path id="path4507" fill="#FFFFFF" d="M2.937,288.529h10.76v1.258H2.937V288.529z"/>
		<path id="path4511" fill="#FFFFFF" d="M2.672,291.045h3.479v1.256H2.672V291.045z"/>
		<path id="path4513" fill="#FFFFFF" d="M2.583,293.558H6.15v1.258H2.583V293.558z"/>
		<path id="path4517" fill="#FFFFFF" d="M2.799,296.075h3.352v1.256H2.799V296.075z"/>
		<path id="rect4537" fill="#FFFFFF" d="M1.119,286.012h2.516v1.258H1.119V286.012z"/>
		<path id="path4540" fill="#FFFFFF" d="M1.119,288.529h2.516v1.258H1.119V288.529z"/>
		<path id="path4544" fill="#FFFFFF" d="M1.119,291.045h2.516v1.256H1.119V291.045z"/>
		<path id="path4546" fill="#FFFFFF" d="M1.119,293.558h2.516v1.258H1.119V293.558z"/>
		<path id="path4548" fill="#FFFFFF" d="M1.119,296.075h2.516v1.256H1.119V296.075z"/>
		<path id="path4562" fill="none" stroke="#FFFFFF" stroke-width="1.3" d="M14.451,298.087l-2.012-2.012"/>
		<path id="path4564" fill="#FFFFFF" d="M10.553,291.045c-1.736,0-3.145,1.407-3.145,3.144c0,1.737,1.406,3.146,3.145,3.146
			c1.736,0,3.146-1.408,3.146-3.146C13.698,292.452,12.289,291.045,10.553,291.045z M10.553,292.303
			c1.043,0,1.887,0.843,1.887,1.886l0,0c0,1.041-0.844,1.887-1.887,1.887c-1.041,0-1.889-0.846-1.889-1.887
			C8.664,293.146,9.512,292.303,10.553,292.303L10.553,292.303z"/>
		<rect id="rect4599" x="3.635" y="286.012" fill="#FFFFFF" width="1.258" height="1.258"/>
		<rect id="rect4601" x="3.635" y="288.529" fill="#FFFFFF" width="1.258" height="1.258"/>
		<rect id="rect4605" x="3.635" y="291.045" fill="#FFFFFF" width="1.258" height="1.256"/>
		<rect id="rect4607" x="3.635" y="293.558" fill="#FFFFFF" width="1.258" height="1.258"/>
		<rect id="rect4609" x="3.635" y="296.075" fill="#FFFFFF" width="1.258" height="1.256"/>
	</g>
</g>
</svg>
