<svg xmlns="http://www.w3.org/2000/svg" viewBox="-23271.15 -10488.75 20.9 20.9">
  <defs>
    <style>
      .cls-1 {
        fill: #fd7037;
        stroke: #fd7037;
        stroke-width: 0.3px;
        fill-rule: evenodd;
      }
    </style>
  </defs>
  <g id="save" transform="translate(-23273 -10489.6)">
    <g id="Artboard-1" transform="translate(2 1)">
      <path id="editor-floopy-dish-save-outline-stroke" class="cls-1" d="M793.3,552a.3.3,0,0,0-.305.307v19.986a.3.3,0,0,0,.307.307h19.986a.307.307,0,0,0,.307-.3V555.433L810.167,552Zm.676.981v18.638h18.638V555.777l-2.8-2.8ZM808.7,564.752H797.9v5.886h-.981v-6.867h12.752v6.867H808.7Zm-1.962-6.788h-6.867v-4h-.981v4.9h8.829v-4.9h-.981Zm-1.962-4v1.962h.981v-1.962Z" transform="translate(-793 -552)"/>
    </g>
  </g>
</svg>
