<?xml version="1.0" encoding="utf-8"?>
<!-- Generator: Adobe Illustrator 16.0.0, SVG Export Plug-In . SVG Version: 6.00 Build 0)  -->
<!DOCTYPE svg PUBLIC "-//W3C//DTD SVG 1.1//EN" "http://www.w3.org/Graphics/SVG/1.1/DTD/svg11.dtd">
<svg version="1.1" id="Layer_1" xmlns="http://www.w3.org/2000/svg" xmlns:xlink="http://www.w3.org/1999/xlink" x="0px" y="0px"
	 width="15px" height="15px" viewBox="0 0 15 15" enable-background="new 0 0 15 15" xml:space="preserve">
<path fill="#996E31" d="M13.489,11.87l-3.15-3.151c0.449-0.734,0.724-1.59,0.724-2.516c0-2.682-2.177-4.857-4.857-4.857
	c-2.682,0-4.857,2.175-4.857,4.857c0,2.682,2.176,4.857,4.857,4.857c0.926,0,1.781-0.273,2.518-0.724l3.149,3.149
	c0.222,0.222,0.589,0.221,0.812,0l0.81-0.811C13.711,12.458,13.711,12.091,13.489,11.87z M6.203,9.441
	c-1.787,0-3.238-1.45-3.238-3.238c0-1.789,1.451-3.238,3.238-3.238c1.789,0,3.238,1.45,3.238,3.238S7.992,9.441,6.203,9.441z"/>
</svg>
