<?xml version="1.0" encoding="utf-8"?>
<!-- Generator: Adobe Illustrator 16.0.0, SVG Export Plug-In . SVG Version: 6.00 Build 0)  -->
<!DOCTYPE svg PUBLIC "-//W3C//DTD SVG 1.1//EN" "http://www.w3.org/Graphics/SVG/1.1/DTD/svg11.dtd">
<svg version="1.1" id="Layer_1" xmlns="http://www.w3.org/2000/svg" xmlns:xlink="http://www.w3.org/1999/xlink" x="0px" y="0px"
	 width="20px" height="20px" viewBox="0 0 20 20" enable-background="new 0 0 20 20" xml:space="preserve">
<g id="Layer_21">
	<g>
		<path fill="#996E31" d="M4.161,17.188c0-0.041-0.003-0.08-0.009-0.117c0.005-0.023,0.009-0.049,0.009-0.074v-0.939
			c0-0.134-0.094-0.242-0.211-0.242c-0.116,0-0.21,0.108-0.21,0.242v0.939c0,0.025,0.004,0.051,0.01,0.074
			c-0.005,0.037-0.01,0.076-0.01,0.117l1.021,1.394l0,0l0.543,0.169L5.11,18.48L4.161,17.188z"/>
		<path fill="#996E31" d="M5.978,18.58l-1.021-1.395c0-0.041-0.003-0.08-0.008-0.117c0.005-0.021,0.008-0.049,0.008-0.073v-0.938
			c0-0.136-0.094-0.246-0.21-0.246c-0.116,0-0.21,0.11-0.21,0.246v0.938c0,0.024,0.003,0.052,0.01,0.073
			c-0.005,0.037-0.01,0.076-0.01,0.117l1.018,1.392L5.552,18.58l0.543,0.168L5.971,18.58H5.978L5.978,18.58z"/>
		<path fill="#996E31" d="M7.571,18.58L6.55,17.188c0-0.041-0.003-0.08-0.01-0.117c0.006-0.022,0.01-0.049,0.01-0.074v-0.939
			c0-0.135-0.093-0.246-0.21-0.246c-0.115,0-0.21,0.111-0.21,0.246v0.939c0,0.025,0.003,0.052,0.01,0.074
			c-0.005,0.037-0.01,0.076-0.01,0.117l1.019,1.394l0,0l0.544,0.168L7.571,18.58L7.571,18.58z"/>
		<path fill="#996E31" d="M8.368,18.58l-1.021-1.395c0-0.041-0.003-0.08-0.01-0.117c0.006-0.021,0.01-0.049,0.01-0.073v-0.938
			c0-0.136-0.094-0.246-0.21-0.246c-0.116,0-0.21,0.11-0.21,0.246v0.938c0,0.024,0.004,0.052,0.01,0.073
			c-0.005,0.037-0.01,0.076-0.01,0.117l1.02,1.395H7.943l0.545,0.168L8.365,18.58H8.368L8.368,18.58z"/>
		<path fill="#996E31" d="M9.962,18.58l-1.021-1.395c0-0.041-0.003-0.08-0.01-0.117c0.006-0.021,0.01-0.049,0.01-0.073v-0.938
			c0-0.136-0.094-0.246-0.211-0.246c-0.116,0-0.209,0.11-0.209,0.246v0.938c0,0.024,0.003,0.052,0.01,0.073
			c-0.006,0.037-0.01,0.076-0.01,0.117l1.017,1.392L9.535,18.58l0.543,0.168L9.955,18.58H9.962z"/>
		<path fill="#996E31" d="M11.557,18.58l-1.022-1.395c0-0.041-0.005-0.08-0.011-0.117c0.006-0.021,0.011-0.049,0.011-0.073v-0.938
			c0-0.136-0.093-0.246-0.209-0.246c-0.116,0-0.211,0.11-0.211,0.246v0.938c0,0.024,0.003,0.052,0.009,0.073
			c-0.006,0.037-0.009,0.076-0.009,0.117l1.02,1.395l0,0l0.546,0.168L11.557,18.58L11.557,18.58L11.557,18.58z"/>
		<path fill="#996E31" d="M12.352,18.58l-1.021-1.395c0-0.041-0.002-0.08-0.011-0.117c0.009-0.021,0.011-0.049,0.011-0.073v-0.938
			c0-0.136-0.095-0.246-0.215-0.246c-0.113,0-0.207,0.11-0.207,0.246v0.938c0,0.024,0.002,0.052,0.012,0.073
			c-0.01,0.037-0.012,0.076-0.012,0.117l1.021,1.395l0,0l0.543,0.168L12.352,18.58L12.352,18.58z"/>
		<path fill="#996E31" d="M13.943,18.58l-1.019-1.395c0-0.041-0.004-0.08-0.012-0.117c0.008-0.021,0.012-0.049,0.012-0.073v-0.938
			c0-0.136-0.092-0.246-0.213-0.246c-0.112,0-0.207,0.11-0.207,0.246v0.938c0,0.024,0,0.052,0.011,0.073
			c-0.011,0.037-0.011,0.076-0.011,0.117l1.021,1.395l0,0l0.543,0.168L13.943,18.58L13.943,18.58L13.943,18.58z"/>
		<path fill="#996E31" d="M14.74,18.58l-1.018-1.395c0-0.041-0.007-0.08-0.013-0.117c0.006-0.021,0.013-0.049,0.013-0.073v-0.938
			c0-0.136-0.097-0.246-0.214-0.246c-0.114,0-0.209,0.11-0.209,0.246v0.938c0,0.024,0.002,0.052,0.011,0.073
			c-0.009,0.037-0.011,0.076-0.011,0.117l1.021,1.395l0,0l0.545,0.168L14.74,18.58L14.74,18.58z"/>
		<path fill="#996E31" d="M9.102,7.409c0.341,0,0.617-0.202,0.617-0.453V1.702c0-0.25-0.277-0.453-0.617-0.453
			S8.485,1.452,8.485,1.702v5.254C8.485,7.207,8.76,7.409,9.102,7.409z"/>
		<path fill="#996E31" d="M14.336,13.884L9.718,7.207V7.3c0,0.341-0.275,0.617-0.617,0.617c-0.342,0-0.616-0.275-0.616-0.616V7.207
			l-4.606,6.661l-0.162,1.772h10.77L14.336,13.884z"/>
		<path fill="#996E31" d="M6.773,18.58L6.773,18.58l-1.02-1.395c0-0.041-0.003-0.08-0.01-0.117c0.005-0.021,0.01-0.049,0.01-0.073
			v-0.938c0-0.136-0.094-0.246-0.21-0.246s-0.21,0.11-0.21,0.246v0.938c0,0.024,0.003,0.052,0.01,0.073
			c-0.006,0.037-0.01,0.076-0.01,0.117l1.011,1.381H6.343l0.002,0.002l0.007,0.012h0.027l0.507,0.152L6.773,18.58z"/>
		<path fill="#996E31" d="M9.159,18.58h0.005l-1.02-1.395c0-0.041-0.003-0.08-0.01-0.117c0.005-0.021,0.01-0.049,0.01-0.073v-0.938
			c0-0.136-0.093-0.246-0.21-0.246c-0.116,0-0.21,0.11-0.21,0.246v0.938c0,0.024,0.003,0.052,0.01,0.073
			c-0.006,0.037-0.01,0.076-0.01,0.117l1.008,1.377L8.73,18.566h0.005l0.007,0.014h0.026l0.503,0.152L9.159,18.58z"/>
		<path fill="#996E31" d="M10.654,18.438l-0.917-1.252c0-0.041-0.003-0.08-0.01-0.115c0.007-0.024,0.01-0.049,0.01-0.075v-0.938
			c0-0.135-0.094-0.244-0.21-0.244c-0.116,0-0.21,0.108-0.21,0.242v0.94c0,0.024,0.004,0.051,0.009,0.073
			c-0.005,0.037-0.009,0.076-0.009,0.117l1.02,1.394h0.007l0.543,0.169l-0.229-0.313L10.654,18.438z"/>
		<path fill="#996E31" d="M13.045,18.438l-0.916-1.25c0-0.041-0.004-0.08-0.01-0.117c0.006-0.023,0.01-0.049,0.01-0.074v-0.939
			c0-0.134-0.094-0.242-0.207-0.242c-0.119,0-0.213,0.108-0.213,0.242v0.939c0,0.025,0.002,0.051,0.01,0.074
			c-0.008,0.037-0.01,0.076-0.01,0.117l1.021,1.394h0.014l0.525,0.162L13.045,18.438z"/>
		<path fill="#996E31" d="M15.512,18.544l-0.994-1.354c0-0.043-0.004-0.082-0.01-0.116c0.006-0.023,0.01-0.05,0.01-0.075v-0.939
			c0-0.135-0.092-0.244-0.211-0.244c-0.115,0-0.209,0.109-0.209,0.244v0.939c0,0.025,0.002,0.052,0.01,0.075
			c-0.008,0.034-0.01,0.073-0.01,0.116l1.019,1.394h0.006l0.541,0.168L15.512,18.544z"/>
	</g>
</g>
</svg>
