<?xml version="1.0" encoding="utf-8"?>
<!-- Generator: Adobe Illustrator 16.0.3, SVG Export Plug-In . SVG Version: 6.00 Build 0)  -->
<!DOCTYPE svg PUBLIC "-//W3C//DTD SVG 1.1//EN" "http://www.w3.org/Graphics/SVG/1.1/DTD/svg11.dtd">
<svg version="1.1" id="Layer_1" xmlns="http://www.w3.org/2000/svg" xmlns:xlink="http://www.w3.org/1999/xlink" x="0px" y="0px"
	 width="20px" height="20px" viewBox="0 0 20 20" enable-background="new 0 0 20 20" xml:space="preserve">
<g id="layer1" transform="translate(0,-1020.3622)">
	<path id="rect4380" fill="#FFFFFF" stroke="#FFFFFF" stroke-width="0.4" stroke-miterlimit="10" d="M2.605,1021.936
		c-0.677,0-1.233,0.556-1.233,1.233v14.789c0,0.678,0.556,1.232,1.233,1.232h14.791c0.677,0,1.232-0.555,1.232-1.232v-14.789
		c0-0.677-0.556-1.233-1.232-1.233H2.605z M2.605,1022.552h14.791c0.347,0,0.616,0.27,0.616,0.617v1.232H1.988v-1.232
		C1.988,1022.822,2.258,1022.552,2.605,1022.552z M1.988,1025.017h16.023v6.779H1.988V1025.017z M1.988,1032.411h6.845v6.164H2.537
		c-0.309,0-0.548-0.27-0.548-0.617V1032.411z M9.563,1032.411h8.449v5.547c0,0.348-0.295,0.617-0.676,0.617H9.563V1032.411z
		 M10.881,1034.261c-0.17,0.008-0.301,0.152-0.291,0.324c0.008,0.17,0.152,0.299,0.323,0.293l0,0h1.464h2.232
		c0.172,0.002,0.311-0.135,0.313-0.305s-0.134-0.311-0.304-0.313c-0.002,0-0.006,0-0.01,0h-2.232h-1.464
		C10.902,1034.261,10.893,1034.261,10.881,1034.261z M15.813,1034.261c-0.172,0.008-0.301,0.152-0.293,0.324
		c0.008,0.17,0.153,0.299,0.323,0.293l0,0h0.616c0.172,0.002,0.311-0.135,0.313-0.305c0.003-0.17-0.133-0.311-0.305-0.313
		c-0.002,0-0.004,0-0.008,0h-0.616C15.832,1034.261,15.822,1034.261,15.813,1034.261z M10.881,1036.108
		c-0.17,0.01-0.301,0.154-0.291,0.326c0.008,0.17,0.152,0.299,0.323,0.291l0,0h1.464h2.232c0.172,0.002,0.311-0.133,0.313-0.303
		s-0.134-0.311-0.304-0.314c-0.002,0-0.006,0-0.01,0h-2.232h-1.464C10.902,1036.108,10.893,1036.108,10.881,1036.108z
		 M15.813,1036.108c-0.172,0.01-0.301,0.154-0.293,0.326c0.008,0.17,0.153,0.299,0.323,0.291l0,0h0.616
		c0.172,0.002,0.311-0.133,0.313-0.303c0.003-0.17-0.133-0.311-0.305-0.314c-0.002,0-0.004,0-0.008,0h-0.616
		C15.832,1036.108,15.822,1036.108,15.813,1036.108z"/>
</g>
</svg>
