<?xml version="1.0" encoding="utf-8"?>
<!-- Generator: Adobe Illustrator 16.0.0, SVG Export Plug-In . SVG Version: 6.00 Build 0)  -->
<!DOCTYPE svg PUBLIC "-//W3C//DTD SVG 1.1//EN" "http://www.w3.org/Graphics/SVG/1.1/DTD/svg11.dtd">
<svg version="1.1" id="Layer_1" xmlns="http://www.w3.org/2000/svg" xmlns:xlink="http://www.w3.org/1999/xlink" x="0px" y="0px"
	 width="15px" height="15px" viewBox="0 0 15 15" enable-background="new 0 0 15 15" xml:space="preserve">
<g id="Layer_1_2_">
	<g id="Layer_1_1_">
	</g>
</g>
<g id="Layer_2">
	<path fill="#996E31" d="M13.221,7.443c-0.316,0-0.572,0.256-0.572,0.573v4.004c0,0.315-0.256,0.571-0.571,0.571H2.924
		c-0.316,0-0.572-0.256-0.572-0.571V2.867c0-0.316,0.256-0.572,0.572-0.572h4.003c0.316,0,0.572-0.256,0.572-0.572
		S7.244,1.151,6.928,1.151H2.924c-0.948,0-1.716,0.769-1.716,1.716v9.152c0,0.946,0.769,1.715,1.716,1.715h9.152
		c0.947,0,1.715-0.769,1.715-1.715V8.016C13.791,7.699,13.535,7.443,13.221,7.443z"/>
	<path fill="#996E31" d="M13.79,1.718c0-0.036-0.003-0.072-0.011-0.107c-0.004-0.015-0.01-0.03-0.014-0.046
		c-0.006-0.02-0.012-0.041-0.019-0.061c-0.008-0.017-0.019-0.033-0.026-0.049c-0.01-0.017-0.017-0.033-0.027-0.049
		c-0.017-0.025-0.036-0.049-0.058-0.072c-0.006-0.004-0.009-0.01-0.013-0.015c-0.005-0.005-0.01-0.008-0.016-0.011
		c-0.022-0.022-0.047-0.042-0.071-0.06c-0.017-0.01-0.034-0.018-0.05-0.026c-0.016-0.009-0.032-0.019-0.051-0.027
		c-0.021-0.008-0.039-0.013-0.061-0.019c-0.016-0.003-0.029-0.01-0.047-0.013c-0.037-0.008-0.073-0.011-0.11-0.011H9.787
		c-0.314,0-0.572,0.256-0.572,0.572s0.258,0.572,0.572,0.572h2.051L7.152,6.98c-0.223,0.224-0.223,0.586,0,0.81
		c0.223,0.224,0.585,0.224,0.809,0l4.688-4.686v2.051c0,0.316,0.256,0.572,0.572,0.572c0.314,0,0.57-0.256,0.57-0.572V1.723
		C13.791,1.721,13.79,1.72,13.79,1.718z"/>
</g>
</svg>
