<svg xmlns="http://www.w3.org/2000/svg" viewBox="-19380.809 -20210.699 14.301 15.6">
  <defs>
    <style>
      .cls-1 {
        fill: #fff;
      }
    </style>
  </defs>
  <path id="User" class="cls-1" d="M206.3,140.97a2.531,2.531,0,0,1-.741,1.925,2.739,2.739,0,0,1-1.97.706h-8.877a2.739,2.739,0,0,1-1.97-.706A2.531,2.531,0,0,1,192,140.97q0-.538.036-1.051a10.348,10.348,0,0,1,.142-1.107,8.611,8.611,0,0,1,.269-1.1,5.222,5.222,0,0,1,.437-.99,3.571,3.571,0,0,1,.63-.823,2.649,2.649,0,0,1,.868-.543,3.05,3.05,0,0,1,1.132-.2,1.241,1.241,0,0,1,.427.218q.335.218.757.488a4.8,4.8,0,0,0,1.1.488,4.318,4.318,0,0,0,2.712,0,4.8,4.8,0,0,0,1.1-.488q.421-.269.757-.488a1.241,1.241,0,0,1,.427-.218,3.05,3.05,0,0,1,1.132.2,2.649,2.649,0,0,1,.868.543,3.571,3.571,0,0,1,.63.823,5.22,5.22,0,0,1,.437.99,8.606,8.606,0,0,1,.269,1.1,10.344,10.344,0,0,1,.142,1.107Q206.3,140.431,206.3,140.97Zm-3.25-9.07a3.9,3.9,0,1,1-1.143-2.757A3.758,3.758,0,0,1,203.05,131.9Z" transform="translate(-19572.808 -20338.7)"/>
</svg>
