<svg xmlns="http://www.w3.org/2000/svg" viewBox="-19382.699 -20148.756 16.4 15.514">
  <defs>
    <style>
      .cls-1 {
        fill: #fff;
      }
    </style>
  </defs>
  <path id="passward" class="cls-1" d="M8.108,131.742a1.863,1.863,0,0,0-1.871-1.871,1.863,1.863,0,0,0-1.871,1.871,1.907,1.907,0,0,0,.185.809,1.907,1.907,0,0,0-.809-.185,1.871,1.871,0,1,0,0,3.742,1.863,1.863,0,0,0,1.871-1.871,1.907,1.907,0,0,0-.185-.809,1.907,1.907,0,0,0,.809.185,1.863,1.863,0,0,0,1.871-1.871ZM16.4,138.6q0,.166-.477.643t-.643.477a.563.563,0,0,1-.278-.156q-.19-.156-.356-.322t-.375-.39q-.21-.224-.239-.253l-.935.936,2.144,2.144a.9.9,0,0,1,.273.663,1.326,1.326,0,0,1-1.169,1.169.9.9,0,0,1-.663-.273L7.143,136.7a5.885,5.885,0,0,1-3.557,1.277,3.5,3.5,0,0,1-2.587-1,3.5,3.5,0,0,1-1-2.587,5.717,5.717,0,0,1,.926-3.05,7.407,7.407,0,0,1,2.417-2.417A5.717,5.717,0,0,1,6.393,128a3.424,3.424,0,0,1,3.586,3.586A5.885,5.885,0,0,1,8.7,135.143l3.459,3.459.935-.935q-.029-.029-.253-.239t-.39-.375q-.166-.166-.322-.356a.563.563,0,0,1-.156-.278q0-.166.477-.643t.643-.477a.308.308,0,0,1,.224.1q.058.058.448.434t.8.775q.409.4.843.838t.711.76Q16.4,138.524,16.4,138.6Z" transform="translate(-19382.7 -20276.757)"/>
</svg>
