<?xml version="1.0" encoding="utf-8"?>
<!-- Generator: Adobe Illustrator 16.0.3, SVG Export Plug-In . SVG Version: 6.00 Build 0)  -->
<!DOCTYPE svg PUBLIC "-//W3C//DTD SVG 1.1//EN" "http://www.w3.org/Graphics/SVG/1.1/DTD/svg11.dtd">
<svg version="1.1" id="Layer_1" xmlns="http://www.w3.org/2000/svg" xmlns:xlink="http://www.w3.org/1999/xlink" x="0px" y="0px"
	 width="220px" height="52px" viewBox="0 0 220 52" enable-background="new 0 0 220 52" xml:space="preserve">
<g>
	<g>
		<g>
			<g>
				<g>
					<path fill="#FFFFFF" d="M41.587,49.864c-1.734,0-3.364-0.675-4.589-1.9c-1.227-1.224-1.901-2.853-1.901-4.588
						c0-1.73,0.674-3.36,1.898-4.583c1.226-1.227,2.856-1.901,4.589-1.901c1.733,0,3.362,0.673,4.585,1.899
						c2.53,2.53,2.53,6.647,0,9.175C44.947,49.191,43.319,49.864,41.587,49.864z"/>
				</g>
				<g>
					<path fill="#FFFFFF" d="M6.346,15.273c-1.734,0-3.364-0.675-4.589-1.901c-1.226-1.224-1.901-2.853-1.901-4.586
						c0-1.733,0.674-3.361,1.897-4.583C2.98,2.975,4.611,2.3,6.345,2.3c1.731,0,3.36,0.674,4.583,1.898
						c1.227,1.226,1.902,2.856,1.902,4.589c0,1.734-0.675,3.363-1.901,4.589C9.706,14.6,8.077,15.273,6.346,15.273z"/>
				</g>
				<path fill="#FFFFFF" d="M41.298,15.083c-1.735,0-3.364-0.675-4.589-1.9c-2.528-2.53-2.53-6.645-0.004-9.172
					c1.226-1.226,2.856-1.902,4.59-1.902c1.733,0,3.362,0.675,4.587,1.9c2.528,2.529,2.528,6.646,0,9.179
					C44.658,14.409,43.029,15.083,41.298,15.083z"/>
				<g>
					<path fill="#FFFFFF" d="M6.515,49.864c-1.733,0-3.364-0.675-4.59-1.9c-1.225-1.225-1.899-2.853-1.898-4.586
						c0-1.732,0.676-3.362,1.902-4.587c0.257-0.258,0.546-0.495,0.914-0.743c0.111-0.077,0.213-0.139,0.319-0.203
						c0.24-0.138,0.479-0.263,0.703-0.365c0.122-0.055,0.247-0.111,0.378-0.16c0.233-0.087,0.493-0.165,0.791-0.234
						c0.059-0.017,0.111-0.031,0.164-0.046c0.034-0.009,0.066-0.021,0.1-0.028l1.444-0.099c0.184,0.008,0.379,0.03,0.588,0.06
						l0.082,0.01c0.049,0.007,0.116,0.012,0.182,0.015L7.651,37l0.065,0.015h0.058c0.105,0.003,0.211,0.005,0.316,0.005
						c2.489,0,4.946-1.06,6.742-2.907c1.788-1.84,2.772-4.313,2.702-6.789l-0.002-0.073l-0.014-0.076
						c-0.014-0.069-0.018-0.141-0.022-0.209c-0.006-0.083-0.014-0.166-0.024-0.25l-0.016-0.146
						c-0.014-0.125-0.028-0.247-0.036-0.371l0.11-1.448c0.007-0.037,0.02-0.07,0.03-0.105l0.026-0.089
						c0.067-0.274,0.138-0.55,0.242-0.816c0.053-0.152,0.104-0.264,0.16-0.378c0.116-0.253,0.235-0.483,0.375-0.719
						c0.061-0.103,0.121-0.206,0.191-0.307c0.262-0.381,0.5-0.674,0.748-0.921c1.225-1.225,2.854-1.899,4.59-1.899
						c1.732,0,3.363,0.673,4.589,1.897c2.526,2.53,2.524,6.646-0.006,9.176c-0.256,0.257-0.545,0.492-0.915,0.743
						c-0.108,0.074-0.21,0.136-0.313,0.195c-0.233,0.14-0.468,0.264-0.702,0.372c-0.127,0.056-0.254,0.115-0.376,0.16
						c-0.248,0.093-0.511,0.171-0.788,0.232l-0.156,0.044c-0.036,0.01-0.07,0.021-0.104,0.03l-1.458,0.103
						c-0.171-0.006-0.35-0.028-0.54-0.053l-0.13-0.017c-0.043-0.008-0.111-0.013-0.18-0.017l-0.051-0.004l-0.074-0.015h-0.059
						c-0.107-0.004-0.211-0.005-0.316-0.005c-2.489,0-4.945,1.06-6.74,2.906c-1.789,1.84-2.774,4.316-2.703,6.792l0.001,0.074
						l0.014,0.073c0.013,0.07,0.016,0.139,0.022,0.21c0.006,0.083,0.013,0.166,0.023,0.248c0.003,0.049,0.013,0.139,0.024,0.226
						c0.011,0.101,0.024,0.197,0.024,0.296v0.034l-0.104,1.39c-0.007,0.029-0.054,0.189-0.066,0.238
						c-0.07,0.301-0.149,0.565-0.238,0.804c-0.049,0.133-0.098,0.247-0.155,0.366c-0.113,0.247-0.235,0.483-0.374,0.724
						c-0.062,0.099-0.134,0.214-0.207,0.324c-0.242,0.35-0.48,0.644-0.737,0.901C9.877,49.189,8.249,49.864,6.515,49.864
						L6.515,49.864z"/>
				</g>
				<path fill="#FFFFFF" d="M24.034,49.864c-1.735,0-3.365-0.675-4.591-1.902c-1.225-1.224-1.899-2.852-1.9-4.586
					c-0.001-1.73,0.673-3.359,1.897-4.581c0.25-0.251,0.533-0.483,0.921-0.75c0.097-0.066,0.2-0.13,0.308-0.191
					c0.239-0.143,0.468-0.264,0.706-0.373c0.127-0.058,0.251-0.114,0.376-0.161c0.241-0.089,0.503-0.167,0.781-0.229
					c0,0,0.229-0.065,0.258-0.073l1.466-0.107c0.173,0.008,0.36,0.032,0.555,0.059l0.108,0.014c0.072,0.008,0.132,0.014,0.193,0.014
					c0.024,0.002,0.048,0.002,0.072,0.004l0.045,0.007l0.062,0.006c0.107,0.004,0.216,0.006,0.324,0.006
					c2.484-0.001,4.937-1.059,6.729-2.904c1.788-1.837,2.772-4.314,2.702-6.791l-0.009-0.303l-0.026-0.033
					c-0.002-0.01-0.002-0.022-0.003-0.033c-0.003-0.07-0.007-0.142-0.015-0.213l-0.024-0.208c-0.013-0.115-0.028-0.228-0.032-0.342
					l0.101-1.405c0.008-0.034,0.059-0.208,0.071-0.26c0.082-0.335,0.154-0.581,0.237-0.799c0.046-0.131,0.102-0.25,0.159-0.376
					c0.104-0.227,0.226-0.456,0.374-0.709l0.028-0.046c0.05-0.085,0.098-0.169,0.157-0.252c0.266-0.387,0.501-0.678,0.751-0.927
					c1.226-1.226,2.856-1.901,4.59-1.901c1.732,0,3.361,0.674,4.586,1.898c2.528,2.528,2.528,6.646,0,9.179
					c-0.246,0.243-0.538,0.479-0.919,0.743c-0.073,0.051-0.144,0.092-0.214,0.135l-0.114,0.07c-0.217,0.129-0.453,0.253-0.683,0.357
					c-0.13,0.059-0.252,0.115-0.381,0.163c-0.227,0.086-0.478,0.158-0.793,0.234c-0.063,0.014-0.115,0.03-0.165,0.045
					c-0.035,0.009-0.068,0.021-0.102,0.028l-1.442,0.099c-0.211-0.008-0.439-0.039-0.661-0.068c-0.075-0.01-0.134-0.012-0.191-0.016
					c-0.022-0.001-0.044-0.001-0.066-0.004l-0.123-0.013c-0.107-0.004-0.214-0.006-0.32-0.006c-2.487,0-4.94,1.059-6.734,2.904
					c-1.787,1.84-2.771,4.315-2.698,6.793l0.002,0.072l0.015,0.072c0.014,0.072,0.017,0.147,0.022,0.222
					c0.005,0.076,0.011,0.151,0.019,0.224c0.004,0.063,0.014,0.14,0.021,0.216c0.014,0.11,0.027,0.221,0.029,0.33l-0.106,1.424
					c-0.007,0.031-0.063,0.224-0.063,0.224c-0.069,0.302-0.147,0.565-0.238,0.814c-0.043,0.117-0.095,0.229-0.146,0.347
					l-0.018,0.041c-0.108,0.231-0.229,0.461-0.363,0.685c-0.066,0.111-0.132,0.221-0.201,0.323c-0.254,0.368-0.493,0.662-0.75,0.92
					C27.391,49.191,25.765,49.864,24.034,49.864L24.034,49.864z"/>
				<path fill="#FFFFFF" d="M6.517,32.349c-1.734,0-3.363-0.674-4.588-1.898c-1.226-1.227-1.901-2.855-1.902-4.589
					c-0.001-1.731,0.672-3.359,1.897-4.583c0.251-0.251,0.543-0.488,0.92-0.748c0.098-0.066,0.208-0.133,0.319-0.2
					c0.225-0.132,0.453-0.254,0.698-0.367c0.125-0.057,0.25-0.114,0.382-0.163c0.239-0.088,0.501-0.165,0.776-0.227l0.165-0.046
					c0.03-0.009,0.06-0.019,0.089-0.025l1.469-0.106c0.191,0.008,0.397,0.035,0.613,0.064L7.4,19.467
					c0.076,0.008,0.134,0.011,0.193,0.014c0.021,0.001,0.042,0.001,0.063,0.004l0.063,0.011l0.059,0.002
					c0.109,0.003,0.216,0.005,0.324,0.005c2.483,0,4.937-1.058,6.729-2.904c1.787-1.84,2.771-4.316,2.699-6.793l-0.002-0.071
					l-0.014-0.07c-0.015-0.079-0.017-0.158-0.022-0.238c-0.003-0.065-0.007-0.131-0.015-0.199l-0.022-0.199
					c-0.015-0.119-0.031-0.24-0.033-0.36l0.098-1.362l0.009-0.031V7.246c0.008-0.031,0.061-0.212,0.061-0.212
					c0.083-0.348,0.156-0.601,0.239-0.823c0.046-0.122,0.104-0.245,0.161-0.372c0.106-0.233,0.229-0.469,0.373-0.709l0.021-0.037
					c0.057-0.093,0.112-0.187,0.175-0.28c0.257-0.373,0.493-0.665,0.741-0.91C20.526,2.675,22.156,2,23.891,2
					c1.733,0,3.362,0.674,4.588,1.899c2.528,2.53,2.526,6.646-0.003,9.175c-0.25,0.251-0.549,0.494-0.914,0.741
					c-0.1,0.07-0.185,0.121-0.274,0.173l-0.048,0.028c-0.238,0.142-0.473,0.265-0.693,0.367c-0.131,0.061-0.254,0.115-0.378,0.162
					c-0.243,0.09-0.501,0.167-0.793,0.234c-0.061,0.015-0.117,0.031-0.171,0.046c-0.034,0.009-0.067,0.02-0.102,0.028l-1.438,0.1
					c-0.182-0.009-0.377-0.033-0.582-0.059l-0.088-0.011c-0.066-0.008-0.127-0.011-0.187-0.015
					c-0.024-0.001-0.047-0.001-0.072-0.005l-0.048-0.006l-0.063-0.004c-0.107-0.004-0.214-0.006-0.322-0.006
					c-2.484,0-4.938,1.058-6.73,2.902c-1.788,1.839-2.773,4.317-2.702,6.796l0.001,0.072l0.013,0.071
					c0.015,0.073,0.018,0.147,0.023,0.221c0.004,0.077,0.011,0.151,0.019,0.227c0.007,0.06,0.015,0.138,0.024,0.214
					c0.012,0.108,0.026,0.215,0.028,0.322l-0.103,1.414c-0.008,0.036-0.02,0.073-0.031,0.111l-0.036,0.126
					c-0.073,0.318-0.148,0.58-0.235,0.814c-0.046,0.123-0.105,0.25-0.165,0.38c-0.106,0.233-0.227,0.462-0.367,0.698
					c-0.067,0.112-0.13,0.218-0.198,0.317c-0.266,0.386-0.495,0.669-0.746,0.918C9.875,31.676,8.248,32.349,6.517,32.349
					L6.517,32.349z"/>
			</g>
		</g>
	</g>
</g>
<g>
	<path fill="#FFFFFF" d="M77.971,14.588h5.339v23.924h-5.339L66.573,23.521v14.991h-5.339V14.588h4.997l11.74,15.402V14.588z"/>
	<path fill="#FFFFFF" d="M106.447,14.588v4.757H94.536v4.929h10.713v4.552H94.536v4.963h12.288v4.724H89.197V14.588H106.447z"/>
	<path fill="#FFFFFF" d="M131.33,35.21c-2.418,2.361-5.396,3.542-8.934,3.542s-6.514-1.181-8.934-3.542
		c-2.418-2.361-3.627-5.3-3.627-8.813s1.209-6.452,3.627-8.813c2.42-2.362,5.396-3.542,8.934-3.542s6.516,1.181,8.934,3.542
		s3.629,5.3,3.629,8.813S133.748,32.849,131.33,35.21z M129.516,26.414c0-2.133-0.684-3.953-2.053-5.459
		c-1.369-1.506-3.053-2.259-5.049-2.259s-3.68,0.753-5.049,2.259c-1.369,1.506-2.053,3.326-2.053,5.459s0.684,3.948,2.053,5.442
		c1.369,1.495,3.053,2.242,5.049,2.242s3.68-0.747,5.049-2.242C128.832,30.361,129.516,28.547,129.516,26.414z"/>
	<path fill="#FFFFFF" d="M147.091,17.737c-1.175,0-2.139,0.239-2.892,0.719c-0.753,0.479-1.13,1.204-1.13,2.173
		s0.377,1.711,1.13,2.225c0.753,0.513,2.355,1.067,4.809,1.66c2.452,0.593,4.301,1.426,5.545,2.499
		c1.243,1.073,1.865,2.652,1.865,4.74s-0.787,3.782-2.361,5.083c-1.575,1.3-3.64,1.95-6.195,1.95c-3.742,0-7.063-1.288-9.96-3.867
		l2.532-3.046c2.419,2.1,4.929,3.148,7.53,3.148c1.301,0,2.333-0.279,3.098-0.839c0.765-0.559,1.146-1.3,1.146-2.225
		c0-0.924-0.359-1.643-1.078-2.156c-0.719-0.513-1.957-0.98-3.714-1.403c-1.757-0.422-3.092-0.81-4.004-1.164
		c-0.913-0.353-1.724-0.815-2.431-1.386c-1.415-1.072-2.122-2.715-2.122-4.929c0-2.213,0.805-3.919,2.413-5.117
		s3.6-1.797,5.973-1.797c1.528,0,3.046,0.251,4.552,0.753c1.507,0.502,2.807,1.21,3.902,2.122l-2.156,3.046
		c-0.708-0.639-1.666-1.164-2.875-1.575C149.458,17.942,148.266,17.737,147.091,17.737z"/>
	<path fill="#FFFFFF" d="M177.569,16.676c1.666,1.392,2.499,3.537,2.499,6.435c0,2.898-0.851,5.02-2.55,6.366
		c-1.7,1.347-4.308,2.02-7.821,2.02h-4.244v7.017h-4.038V14.588h8.214C173.257,14.588,175.904,15.285,177.569,16.676z
		 M174.712,26.55c0.81-0.855,1.215-2.11,1.215-3.765s-0.514-2.824-1.54-3.508c-1.027-0.685-2.636-1.027-4.826-1.027h-4.107v9.583
		h4.689C172.379,27.834,173.901,27.406,174.712,26.55z"/>
	<path fill="#FFFFFF" d="M184.825,14.588h4.038v23.924h-4.038V14.588z"/>
	<path fill="#FFFFFF" d="M213.438,14.588h4.039v23.924h-4.382l-13.554-17.456v17.456h-4.038V14.588h4.038l13.896,17.866V14.588z"/>
</g>
</svg>
