<?xml version="1.0" encoding="utf-8"?>
<!-- Generator: Adobe Illustrator 16.0.3, SVG Export Plug-In . SVG Version: 6.00 Build 0)  -->
<!DOCTYPE svg PUBLIC "-//W3C//DTD SVG 1.1//EN" "http://www.w3.org/Graphics/SVG/1.1/DTD/svg11.dtd">
<svg version="1.1" id="Layer_1" xmlns="http://www.w3.org/2000/svg" xmlns:xlink="http://www.w3.org/1999/xlink" x="0px" y="0px"
	 width="140px" height="32px" viewBox="0 0 140 32" enable-background="new 0 0 140 32" xml:space="preserve">
<g>
	<g>
		<g>
			<g>
				<g>
					<path fill="#F37121" d="M26.405,30.316c-1.098,0-2.13-0.427-2.906-1.203c-0.777-0.776-1.204-1.808-1.204-2.905
						s0.427-2.13,1.202-2.903c0.776-0.777,1.809-1.205,2.907-1.205c1.097,0,2.129,0.427,2.905,1.203c1.603,1.602,1.603,4.21,0,5.813
						C28.533,29.891,27.501,30.316,26.405,30.316z"/>
				</g>
				<g>
					<path fill="#F37121" d="M4.083,8.408c-1.098,0-2.13-0.428-2.907-1.205C0.401,6.428-0.027,5.396-0.027,4.298
						c0-1.098,0.426-2.128,1.202-2.903c0.777-0.777,1.81-1.205,2.908-1.205c1.097,0,2.128,0.428,2.903,1.203
						c0.777,0.777,1.205,1.81,1.205,2.907s-0.428,2.13-1.205,2.907C6.211,7.98,5.18,8.408,4.083,8.408z"/>
				</g>
				<path fill="#F37121" d="M26.221,8.288c-1.098,0-2.13-0.428-2.906-1.205c-1.602-1.602-1.604-4.208-0.002-5.81
					c0.776-0.776,1.809-1.205,2.907-1.205c1.097,0,2.129,0.428,2.906,1.204c1.601,1.602,1.601,4.209,0,5.813
					C28.35,7.86,27.318,8.288,26.221,8.288z"/>
				<g>
					<path fill="#F37121" d="M4.19,30.316c-1.098,0-2.13-0.427-2.907-1.203c-0.776-0.777-1.203-1.808-1.203-2.905
						c0-1.098,0.428-2.13,1.205-2.905c0.163-0.164,0.346-0.313,0.579-0.471c0.07-0.049,0.135-0.087,0.201-0.129
						c0.152-0.086,0.304-0.166,0.445-0.231c0.077-0.034,0.156-0.069,0.239-0.102c0.148-0.055,0.313-0.104,0.501-0.149
						c0.037-0.01,0.07-0.018,0.104-0.027c0.021-0.006,0.042-0.013,0.063-0.018l0.915-0.063c0.116,0.005,0.24,0.02,0.372,0.036
						l0.053,0.008c0.031,0.003,0.072,0.007,0.114,0.009L4.91,22.17l0.042,0.008h0.036c0.066,0.003,0.133,0.004,0.2,0.004
						c1.577,0,3.133-0.672,4.271-1.842c1.133-1.165,1.756-2.732,1.712-4.301l-0.001-0.047l-0.01-0.048
						c-0.008-0.044-0.011-0.089-0.014-0.132c-0.004-0.053-0.008-0.105-0.015-0.158l-0.01-0.092c-0.009-0.08-0.018-0.156-0.023-0.236
						l0.07-0.917c0.004-0.022,0.013-0.043,0.019-0.065l0.016-0.058c0.042-0.173,0.088-0.348,0.153-0.516
						c0.033-0.096,0.066-0.167,0.101-0.239c0.073-0.161,0.149-0.306,0.238-0.456c0.038-0.064,0.076-0.131,0.121-0.194
						c0.166-0.241,0.317-0.427,0.473-0.583c0.776-0.776,1.808-1.203,2.907-1.203c1.098,0,2.13,0.426,2.907,1.202
						c1.601,1.602,1.599,4.208-0.003,5.811c-0.162,0.163-0.346,0.313-0.579,0.472c-0.069,0.047-0.134,0.085-0.198,0.124
						c-0.147,0.088-0.297,0.166-0.445,0.235c-0.08,0.035-0.16,0.071-0.237,0.101c-0.157,0.06-0.325,0.108-0.5,0.147l-0.099,0.028
						c-0.022,0.006-0.044,0.013-0.066,0.019l-0.924,0.066c-0.108-0.004-0.222-0.019-0.342-0.036l-0.082-0.01
						c-0.028-0.004-0.071-0.007-0.114-0.01l-0.033-0.003l-0.047-0.009h-0.037c-0.067-0.003-0.134-0.003-0.2-0.003
						c-1.577,0-3.132,0.672-4.269,1.84c-1.133,1.166-1.757,2.734-1.713,4.303l0.001,0.047l0.009,0.047
						c0.009,0.044,0.011,0.088,0.015,0.133c0.003,0.053,0.008,0.104,0.015,0.156c0.001,0.032,0.008,0.089,0.015,0.144
						c0.007,0.064,0.016,0.125,0.016,0.188v0.022l-0.066,0.88c-0.005,0.018-0.034,0.12-0.042,0.15
						c-0.044,0.189-0.095,0.358-0.151,0.509c-0.031,0.085-0.062,0.157-0.098,0.232c-0.071,0.157-0.148,0.306-0.236,0.457
						c-0.039,0.063-0.085,0.136-0.131,0.207c-0.153,0.222-0.304,0.408-0.466,0.571C6.32,29.89,5.289,30.316,4.19,30.316L4.19,30.316
						z"/>
				</g>
				<path fill="#F37121" d="M15.287,30.316c-1.099,0-2.132-0.427-2.908-1.204c-0.776-0.776-1.203-1.808-1.204-2.904
					c0-1.098,0.427-2.129,1.202-2.902c0.158-0.16,0.337-0.306,0.583-0.477c0.061-0.041,0.126-0.08,0.195-0.12
					c0.151-0.09,0.296-0.168,0.447-0.237c0.08-0.035,0.159-0.071,0.238-0.102c0.153-0.056,0.319-0.105,0.495-0.145
					c0,0,0.145-0.04,0.163-0.045l0.929-0.068c0.11,0.005,0.228,0.021,0.352,0.035l0.068,0.011c0.046,0.004,0.084,0.008,0.122,0.008
					c0.016,0.003,0.031,0.003,0.045,0.004l0.029,0.004l0.039,0.003c0.068,0.002,0.137,0.004,0.205,0.004
					c1.574,0,3.127-0.671,4.263-1.84c1.132-1.164,1.755-2.733,1.711-4.302l-0.005-0.191l-0.017-0.021
					c-0.001-0.006-0.001-0.014-0.001-0.02c-0.002-0.046-0.005-0.092-0.009-0.137l-0.016-0.131c-0.009-0.072-0.018-0.145-0.021-0.217
					l0.064-0.889c0.005-0.022,0.037-0.132,0.044-0.165c0.053-0.213,0.098-0.369,0.15-0.507c0.029-0.082,0.065-0.159,0.101-0.238
					c0.066-0.143,0.143-0.288,0.238-0.449l0.018-0.029c0.031-0.054,0.062-0.107,0.1-0.159c0.168-0.246,0.317-0.43,0.476-0.588
					c0.777-0.777,1.81-1.205,2.908-1.205c1.097,0,2.128,0.427,2.905,1.203c1.602,1.602,1.602,4.209,0,5.813
					c-0.156,0.156-0.341,0.305-0.583,0.472c-0.046,0.032-0.091,0.059-0.135,0.085l-0.072,0.046c-0.138,0.08-0.287,0.158-0.433,0.226
					c-0.083,0.037-0.16,0.071-0.242,0.103c-0.144,0.055-0.302,0.101-0.502,0.147c-0.04,0.01-0.073,0.021-0.104,0.03
					c-0.023,0.005-0.043,0.013-0.065,0.018l-0.914,0.063c-0.133-0.006-0.278-0.026-0.418-0.045
					c-0.048-0.006-0.085-0.007-0.121-0.009c-0.014-0.001-0.028-0.001-0.042-0.003l-0.079-0.009
					c-0.068-0.002-0.135-0.003-0.202-0.003c-1.575,0-3.128,0.672-4.266,1.839c-1.131,1.166-1.754,2.733-1.709,4.302l0.001,0.048
					l0.009,0.045c0.009,0.047,0.01,0.094,0.014,0.14c0.003,0.05,0.007,0.097,0.012,0.143c0.003,0.039,0.009,0.089,0.014,0.137
					c0.008,0.07,0.017,0.14,0.018,0.21l-0.067,0.901c-0.005,0.02-0.041,0.141-0.041,0.141c-0.043,0.19-0.092,0.358-0.15,0.516
					c-0.028,0.075-0.06,0.146-0.093,0.22l-0.011,0.025c-0.068,0.148-0.146,0.293-0.23,0.435c-0.042,0.07-0.083,0.139-0.127,0.204
					c-0.162,0.233-0.313,0.42-0.475,0.584C17.413,29.891,16.383,30.316,15.287,30.316L15.287,30.316z"/>
				<path fill="#F37121" d="M4.192,19.223c-1.098,0-2.13-0.428-2.905-1.202c-0.777-0.777-1.205-1.81-1.206-2.907
					c0-1.097,0.426-2.127,1.202-2.903c0.16-0.16,0.344-0.309,0.583-0.473c0.062-0.042,0.132-0.084,0.202-0.127
					c0.143-0.084,0.288-0.161,0.442-0.232c0.079-0.037,0.158-0.072,0.242-0.103c0.151-0.056,0.318-0.105,0.492-0.144l0.104-0.029
					c0.02-0.005,0.038-0.012,0.057-0.017l0.93-0.067c0.121,0.005,0.251,0.022,0.389,0.042l0.028,0.003
					c0.048,0.004,0.084,0.006,0.122,0.008c0.013,0.001,0.027,0.001,0.041,0.003l0.04,0.007l0.037,0.001
					c0.069,0.002,0.137,0.003,0.205,0.003c1.573,0,3.127-0.67,4.262-1.839c1.132-1.166,1.754-2.734,1.71-4.303l-0.001-0.046
					l-0.009-0.044c-0.009-0.05-0.011-0.099-0.014-0.15c-0.003-0.042-0.005-0.083-0.009-0.126L11.121,4.45
					c-0.01-0.074-0.02-0.151-0.021-0.228l0.062-0.863l0.006-0.02V3.323c0.005-0.02,0.039-0.135,0.039-0.135
					c0.053-0.22,0.099-0.38,0.151-0.521c0.029-0.078,0.065-0.155,0.103-0.235c0.066-0.148,0.145-0.297,0.236-0.45l0.013-0.023
					c0.036-0.06,0.071-0.119,0.111-0.178c0.163-0.236,0.313-0.42,0.469-0.576C13.065,0.428,14.097,0,15.197,0
					c1.098,0,2.129,0.427,2.906,1.203c1.602,1.602,1.601,4.21-0.001,5.812c-0.159,0.159-0.348,0.312-0.579,0.469
					c-0.063,0.045-0.118,0.077-0.174,0.11l-0.03,0.017c-0.151,0.09-0.299,0.168-0.439,0.233c-0.083,0.039-0.161,0.074-0.239,0.103
					c-0.154,0.058-0.318,0.105-0.502,0.149c-0.039,0.009-0.074,0.019-0.109,0.029c-0.021,0.006-0.042,0.012-0.064,0.018
					l-0.911,0.063c-0.115-0.006-0.238-0.021-0.368-0.037L14.63,8.16c-0.042-0.004-0.081-0.006-0.118-0.009
					C14.496,8.15,14.48,8.15,14.466,8.147l-0.031-0.004l-0.04-0.003c-0.068-0.002-0.136-0.004-0.204-0.004
					c-1.573,0-3.127,0.671-4.263,1.839c-1.132,1.165-1.756,2.734-1.712,4.304l0.001,0.045l0.008,0.046
					c0.01,0.046,0.012,0.093,0.015,0.14c0.003,0.048,0.007,0.096,0.012,0.144c0.003,0.038,0.009,0.087,0.015,0.135
					c0.007,0.068,0.016,0.136,0.018,0.205l-0.065,0.894c-0.006,0.024-0.013,0.047-0.02,0.072l-0.023,0.08
					c-0.045,0.199-0.094,0.367-0.149,0.516C8,16.634,7.962,16.713,7.924,16.797c-0.067,0.146-0.144,0.293-0.233,0.441
					c-0.042,0.07-0.082,0.138-0.125,0.203c-0.169,0.243-0.313,0.422-0.472,0.58C6.318,18.796,5.288,19.223,4.192,19.223
					L4.192,19.223z"/>
			</g>
		</g>
	</g>
</g>
<g>
	<path fill="#424651" d="M49.449,7.974h3.382v15.153h-3.382l-7.219-9.495v9.495h-3.382V7.974h3.165l7.436,9.755V7.974z"/>
	<path fill="#424651" d="M67.485,7.974v3.013H59.94v3.122h6.786v2.883H59.94v3.144h7.783v2.991H56.559V7.974H67.485z"/>
	<path fill="#424651" d="M83.245,21.035c-1.532,1.496-3.418,2.243-5.658,2.243s-4.126-0.747-5.658-2.243
		c-1.532-1.496-2.298-3.356-2.298-5.583c0-2.226,0.766-4.086,2.298-5.582c1.532-1.496,3.418-2.244,5.658-2.244
		s4.126,0.748,5.658,2.244c1.532,1.496,2.298,3.356,2.298,5.582C85.543,17.679,84.777,19.539,83.245,21.035z M82.097,15.463
		c0-1.351-0.434-2.504-1.301-3.458c-0.867-0.954-1.934-1.431-3.198-1.431s-2.33,0.477-3.197,1.431
		c-0.867,0.954-1.301,2.106-1.301,3.458c0,1.352,0.434,2.5,1.301,3.447c0.867,0.947,1.933,1.42,3.197,1.42s2.331-0.473,3.198-1.42
		C81.663,17.964,82.097,16.815,82.097,15.463z"/>
	<path fill="#424651" d="M93.228,9.968c-0.744,0-1.354,0.151-1.831,0.455c-0.478,0.303-0.716,0.762-0.716,1.376
		c0,0.615,0.238,1.084,0.716,1.409c0.477,0.325,1.491,0.676,3.046,1.051c1.553,0.376,2.724,0.903,3.512,1.583
		c0.787,0.68,1.182,1.681,1.182,3.003s-0.499,2.396-1.496,3.219c-0.997,0.824-2.306,1.236-3.924,1.236
		c-2.37,0-4.474-0.816-6.309-2.45l1.604-1.93c1.531,1.33,3.121,1.995,4.769,1.995c0.824,0,1.478-0.177,1.962-0.531
		s0.727-0.824,0.727-1.409s-0.228-1.041-0.683-1.366s-1.239-0.621-2.353-0.889c-1.113-0.267-1.958-0.513-2.536-0.737
		s-1.092-0.517-1.539-0.878c-0.896-0.679-1.344-1.72-1.344-3.122s0.509-2.482,1.528-3.241c1.019-0.759,2.279-1.138,3.782-1.138
		c0.969,0,1.93,0.159,2.884,0.477c0.953,0.318,1.777,0.766,2.471,1.344l-1.365,1.929c-0.448-0.404-1.056-0.737-1.821-0.997
		C94.728,10.098,93.972,9.968,93.228,9.968z"/>
	<path fill="#424651" d="M112.532,9.296c1.055,0.882,1.583,2.24,1.583,4.076s-0.539,3.18-1.615,4.032
		c-1.077,0.854-2.729,1.279-4.954,1.279h-2.688v4.444H102.3V7.974h5.203C109.801,7.974,111.478,8.415,112.532,9.296z M110.723,15.55
		c0.513-0.542,0.77-1.336,0.77-2.385c0-1.047-0.325-1.789-0.976-2.222s-1.67-0.65-3.057-0.65h-2.602v6.07h2.97
		C109.244,16.363,110.209,16.092,110.723,15.55z"/>
	<path fill="#424651" d="M117.128,7.974h2.559v15.153h-2.559V7.974z"/>
	<path fill="#424651" d="M135.252,7.974h2.558v15.153h-2.774l-8.585-11.056v11.056h-2.559V7.974h2.559l8.802,11.316V7.974z"/>
</g>
</svg>
