<?xml version="1.0" encoding="utf-8"?>
<!-- Generator: Adobe Illustrator 16.0.3, SVG Export Plug-In . SVG Version: 6.00 Build 0)  -->
<!DOCTYPE svg PUBLIC "-//W3C//DTD SVG 1.1//EN" "http://www.w3.org/Graphics/SVG/1.1/DTD/svg11.dtd">
<svg version="1.1" id="Capa_1" xmlns="http://www.w3.org/2000/svg" xmlns:xlink="http://www.w3.org/1999/xlink" x="0px" y="0px"
	 width="12px" height="14px" viewBox="300 389 12 14" enable-background="new 300 389 12 14" xml:space="preserve">
<g>
	<path d="M310.901,396.455c-0.498-0.409-1.361-0.757-2.594-1.044c1.144-0.287,1.94-0.675,2.394-1.163
		c0.452-0.488,0.68-1.046,0.68-1.671c0-0.594-0.179-1.154-0.536-1.68c-0.356-0.526-0.845-0.921-1.465-1.187
		c-0.618-0.265-1.671-0.397-3.159-0.397H300v0.354c0.593,0,0.999,0.054,1.215,0.162c0.217,0.108,0.369,0.253,0.455,0.436
		c0.086,0.182,0.13,0.624,0.13,1.326v8.424c0,0.703-0.043,1.145-0.13,1.323c-0.086,0.178-0.236,0.324-0.449,0.437
		c-0.214,0.111-0.621,0.167-1.22,0.167v0.354h6.595c1.837,0,3.239-0.386,4.204-1.158c0.786-0.638,1.177-1.444,1.177-2.423
		C311.976,397.789,311.616,397.034,310.901,396.455z M304.825,390.04c0.931-0.006,1.608,0.087,2.029,0.278
		c0.42,0.191,0.746,0.47,0.971,0.838c0.227,0.367,0.341,0.836,0.341,1.412c0,0.575-0.116,1.046-0.345,1.417
		c-0.231,0.37-0.56,0.658-0.99,0.861c-0.433,0.205-1.101,0.307-2.006,0.307L304.825,390.04L304.825,390.04z M308.26,400.26
		c-0.228,0.43-0.56,0.759-0.99,0.985c-0.431,0.226-0.899,0.338-1.412,0.338c-0.345,0-0.604-0.087-0.78-0.262
		c-0.176-0.178-0.264-0.437-0.264-0.781l0.011-0.479v-4.164c0.975-0.006,1.709,0.087,2.201,0.278
		c0.492,0.191,0.877,0.529,1.159,1.011c0.281,0.481,0.42,1.025,0.42,1.632C308.606,399.35,308.49,399.828,308.26,400.26z"/>
</g>
</svg>
