<?xml version="1.0" encoding="utf-8"?>
<!-- Generator: Adobe Illustrator 16.0.3, SVG Export Plug-In . SVG Version: 6.00 Build 0)  -->
<!DOCTYPE svg PUBLIC "-//W3C//DTD SVG 1.1//EN" "http://www.w3.org/Graphics/SVG/1.1/DTD/svg11.dtd">
<svg version="1.1" id="Capa_1" xmlns="http://www.w3.org/2000/svg" xmlns:xlink="http://www.w3.org/1999/xlink" x="0px" y="0px"
	 width="12px" height="14px" viewBox="0 0 12 14" enable-background="new 0 0 12 14" xml:space="preserve">
<path fill="none" d="M-1.219-0.25h14.422v14.422H-1.219V-0.25z"/>
<path d="M1.125,7.001c0-1.028,0.835-1.863,1.863-1.863h2.404V3.996H2.987c-1.658,0-3.004,1.346-3.004,3.005s1.346,3.004,3.004,3.004
	h2.404V8.864H2.987C1.96,8.864,1.125,8.028,1.125,7.001z M3.589,7.603h4.808V6.4H3.589V7.603z M8.996,3.996H6.593v1.143h2.403
	c1.028,0,1.864,0.835,1.864,1.863c0,1.027-0.836,1.863-1.864,1.863H6.593v1.141h2.403c1.659,0,3.006-1.345,3.006-3.004
	S10.655,3.996,8.996,3.996z"/>
</svg>
