<?xml version="1.0" encoding="utf-8"?>
<!-- Generator: Adobe Illustrator 16.0.3, SVG Export Plug-In . SVG Version: 6.00 Build 0)  -->
<!DOCTYPE svg PUBLIC "-//W3C//DTD SVG 1.1//EN" "http://www.w3.org/Graphics/SVG/1.1/DTD/svg11.dtd">
<svg version="1.1" id="Capa_1" xmlns="http://www.w3.org/2000/svg" xmlns:xlink="http://www.w3.org/1999/xlink" x="0px" y="0px"
	 width="12px" height="14px" viewBox="300 389 12 14" enable-background="new 300 389 12 14" xml:space="preserve">
<g>
	<path d="M305.986,397.494l-4.461,4.46l-1.478-1.478l4.461-4.461L305.986,397.494z"/>
	<path d="M307.556,392.967l1.479,1.478l-2.494,2.494l-1.477-1.479L307.556,392.967z"/>
	<path d="M310.234,395.093l0.925,0.923l-0.556,0.555l-0.924-0.924L310.234,395.093z"/>
	<path d="M305.986,390.843l0.922,0.924l-0.553,0.554l-0.924-0.923L305.986,390.843z"/>
	<rect x="310.646" y="393.315" width="1.307" height="0.784"/>
	<rect x="307.904" y="390.049" width="0.782" height="1.306"/>
	<path d="M310.604,390.843l0.556,0.555l-0.925,0.923l-0.554-0.554L310.604,390.843z"/>
</g>
</svg>
