<?xml version="1.0" encoding="utf-8"?>
<!-- Generator: Adobe Illustrator 16.0.3, SVG Export Plug-In . SVG Version: 6.00 Build 0)  -->
<!DOCTYPE svg PUBLIC "-//W3C//DTD SVG 1.1//EN" "http://www.w3.org/Graphics/SVG/1.1/DTD/svg11.dtd">
<svg version="1.1" id="Capa_1" xmlns="http://www.w3.org/2000/svg" xmlns:xlink="http://www.w3.org/1999/xlink" x="0px" y="0px"
	 width="12px" height="14px" viewBox="0 0 12 14" enable-background="new 0 0 12 14" xml:space="preserve">
<g>
	<g>
		<path d="M7.479,2.627L7.075,2.516C7.022,2.499,6.97,2.504,6.92,2.533C6.87,2.561,6.836,2.604,6.818,2.66l-2.441,8.45
			c-0.018,0.057-0.012,0.11,0.016,0.16c0.029,0.051,0.071,0.084,0.127,0.101l0.406,0.112c0.053,0.018,0.104,0.012,0.154-0.017
			s0.084-0.071,0.101-0.128L7.624,2.89c0.018-0.057,0.013-0.111-0.017-0.161C7.579,2.679,7.537,2.645,7.479,2.627z"/>
		<path d="M3.821,4.277c0-0.056-0.022-0.107-0.066-0.15L3.428,3.799c-0.043-0.043-0.093-0.065-0.15-0.065
			c-0.056,0-0.107,0.022-0.15,0.065l-3.05,3.05C0.034,6.893,0.012,6.943,0.012,7c0,0.057,0.022,0.107,0.065,0.151l3.05,3.05
			c0.043,0.044,0.093,0.065,0.15,0.065s0.107-0.021,0.15-0.065l0.327-0.327C3.799,9.829,3.821,9.78,3.821,9.724
			c0-0.058-0.022-0.107-0.066-0.151L1.184,7l2.572-2.572C3.799,4.384,3.821,4.334,3.821,4.277z"/>
		<path d="M11.924,6.849l-3.05-3.05C8.83,3.755,8.78,3.733,8.723,3.733c-0.057,0-0.105,0.022-0.149,0.065L8.246,4.126
			C8.202,4.17,8.181,4.22,8.181,4.277s0.021,0.107,0.065,0.15L10.818,7L8.246,9.572C8.202,9.616,8.181,9.666,8.181,9.724
			c0,0.057,0.021,0.105,0.065,0.149L8.573,10.2c0.044,0.044,0.093,0.065,0.149,0.065c0.058,0,0.107-0.021,0.151-0.065l3.05-3.05
			C11.968,7.107,11.989,7.057,11.989,7C11.989,6.943,11.968,6.893,11.924,6.849z"/>
	</g>
</g>
</svg>
