<?xml version="1.0" encoding="utf-8"?>
<!-- Generator: Adobe Illustrator 16.0.3, SVG Export Plug-In . SVG Version: 6.00 Build 0)  -->
<!DOCTYPE svg PUBLIC "-//W3C//DTD SVG 1.1//EN" "http://www.w3.org/Graphics/SVG/1.1/DTD/svg11.dtd">
<svg version="1.1" id="Capa_1" xmlns="http://www.w3.org/2000/svg" xmlns:xlink="http://www.w3.org/1999/xlink" x="0px" y="0px"
	 width="12px" height="14px" viewBox="0 0 12 14" enable-background="new 0 0 12 14" xml:space="preserve">
<g>
	<path d="M6.538,11.84H5.462c-0.322,0-0.538,0.216-0.538,0.538v1.075c0,0.323,0.215,0.537,0.538,0.537h1.076
		c0.322,0,0.538-0.214,0.538-0.537v-1.075C7.076,12.056,6.86,11.84,6.538,11.84z"/>
	<path d="M6,0.01c-2.689,0-4.84,2.15-4.84,4.839c0,0.269,0,0.538,0.054,0.807C1.268,5.979,1.59,6.14,1.913,6.086l1.022-0.323
		c0.269-0.054,0.43-0.323,0.375-0.591c0-0.107,0-0.215,0-0.323C3.311,3.344,4.495,2.16,6,2.16c1.506,0,2.688,1.184,2.688,2.689
		C8.688,5.763,8.15,6.193,7.183,7c-0.914,0.753-1.99,1.613-2.258,3.173c-0.054,0.323,0.215,0.592,0.538,0.592h1.076
		c0.269,0,0.483-0.161,0.538-0.43c0.161-0.646,0.645-1.076,1.451-1.668C9.549,7.86,10.84,6.839,10.84,4.849
		C10.84,2.16,8.688,0.01,6,0.01z"/>
</g>
</svg>
